<?xml version="1.0" encoding="UTF-8" standalone="no"?>
<svg
   width="1200"
   height="630"
   version="1.1"
   id="svg69"
   sodipodi:docname="card.svg"
   inkscape:version="1.3.1 (91b66b0783, 2023-11-16)"
   inkscape:export-filename="/var/home/jimmac/public_html/badmintonumuzea.eu/assets/card.png"
   inkscape:export-xdpi="96"
   inkscape:export-ydpi="96"
   xml:space="preserve"
   xmlns:inkscape="http://www.inkscape.org/namespaces/inkscape"
   xmlns:sodipodi="http://sodipodi.sourceforge.net/DTD/sodipodi-0.dtd"
   xmlns="http://www.w3.org/2000/svg"
   xmlns:svg="http://www.w3.org/2000/svg"
   xmlns:rdf="http://www.w3.org/1999/02/22-rdf-syntax-ns#"
   xmlns:cc="http://creativecommons.org/ns#"
   xmlns:dc="http://purl.org/dc/elements/1.1/"><metadata
     id="metadata75"><rdf:RDF><cc:Work
         rdf:about=""><dc:format>image/svg+xml</dc:format><dc:type
           rdf:resource="http://purl.org/dc/dcmitype/StillImage" /><dc:title /></cc:Work></rdf:RDF></metadata><defs
     id="defs73" /><sodipodi:namedview
     pagecolor="#ffffff"
     bordercolor="#666666"
     borderopacity="1"
     objecttolerance="10"
     gridtolerance="10"
     guidetolerance="10"
     inkscape:pageopacity="0"
     inkscape:pageshadow="2"
     inkscape:window-width="640"
     inkscape:window-height="480"
     id="namedview71"
     showgrid="false"
     inkscape:current-layer="svg69"
     inkscape:document-rotation="0"
     borderlayer="true"
     inkscape:showpageshadow="false"
     inkscape:pagecheckerboard="1"
     inkscape:deskcolor="#d1d1d1" /><rect
     style="font-variation-settings:normal;opacity:1;vector-effect:none;fill:#f4ecdf;fill-opacity:1;stroke:none;stroke-width:51.7752;stroke-linecap:round;stroke-linejoin:round;stroke-miterlimit:4;stroke-dasharray:none;stroke-dashoffset:0;stroke-opacity:1;stop-color:#000000;stop-opacity:1"
     id="rect77"
     width="1200"
     height="630"
     x="0"
     y="0" /><path
     id="text15"
     style="font-size:63.8895px;line-height:1.25;font-family:'Varela Round';-inkscape-font-specification:'Varela Round, Normal';text-align:center;letter-spacing:17.3037px;word-spacing:0px;text-anchor:middle;fill:#211b35;fill-opacity:1;stroke-width:0.645246"
     d="m 438.72009,462.64892 q -1.88783,0 -3.17951,-1.29168 -1.29167,-1.29167 -1.29167,-3.1795 v -61.30475 q 0,-1.88783 1.29167,-3.17951 1.29168,-1.39103 3.17951,-1.39103 1.88783,0 3.17949,1.39103 1.39103,1.29168 1.39103,3.17951 v 31.59629 l 33.98092,-34.57708 q 1.39103,-1.58975 3.37821,-1.58975 1.68913,0 2.88143,1.19231 1.29167,1.09296 1.29167,2.78207 0,1.98719 -1.09295,3.08014 l -22.95203,22.85267 26.33025,33.18603 q 1.09296,1.39105 1.09296,2.88143 0.0994,1.78847 -1.19232,3.08014 -1.29167,1.29166 -3.1795,1.29166 -2.28526,0 -3.57693,-1.78845 l -25.63473,-32.68925 -11.32698,11.42633 v 18.58021 q 0,1.88783 -1.39103,3.1795 -1.29166,1.29168 -3.17949,1.29168 z m 95.26957,-0.4968 q -2.58335,0 -4.47118,-1.78847 -1.78846,-1.88783 -1.78846,-4.47118 v -59.01948 q 0,-1.88783 1.29166,-3.17951 1.29167,-1.39103 3.1795,-1.39103 1.88783,0 3.17951,1.39103 1.39103,1.29168 1.39103,3.17951 v 56.23741 h 32.49053 q 1.88782,0 3.17949,1.39105 1.39103,1.29166 1.39103,3.17948 0,1.88782 -1.39103,3.17952 -1.29167,1.29167 -3.17949,1.29167 z m 103.9138,0.99358 q -7.05451,0 -13.61224,-2.98077 -6.55772,-2.98079 -10.73082,-9.04171 -4.17309,-6.16027 -4.17309,-15.00327 v -39.24696 q 0,-1.88783 1.29168,-3.17951 1.29166,-1.39103 3.17949,-1.39103 1.88783,0 3.17951,1.39103 1.39103,1.29168 1.39103,3.17951 v 39.54504 q 0,5.96157 2.68269,10.13466 2.78207,4.1731 7.25325,6.25965 4.47118,2.08655 9.5385,2.08655 5.06732,0 9.5385,-2.08655 4.47118,-2.08655 7.15389,-6.25965 2.78207,-4.17309 2.78207,-10.13466 v -39.54504 q 0,-1.88783 1.29168,-3.17951 1.29166,-1.39103 3.17949,-1.39103 1.88783,0 3.1795,1.39103 1.39104,1.29168 1.39104,3.17951 v 39.24696 q 0,8.843 -4.1731,15.00327 -4.17309,6.06092 -10.73082,9.04171 -6.55772,2.98077 -13.61225,2.98077 z m 78.67648,-0.99358 q -1.88782,0 -3.17949,-1.29167 -1.29168,-1.29168 -1.29168,-3.17951 v -60.31116 q 0,-1.88783 1.29168,-3.1795 1.29167,-1.39102 3.17949,-1.39102 h 23.44882 q 10.63146,0 16.39431,4.8686 5.8622,4.86862 5.8622,13.11545 0,5.76284 -2.78205,9.63786 -2.68271,3.77565 -6.95517,5.66348 5.96156,1.88783 9.73722,6.06093 3.87502,4.17309 3.87502,10.5321 0,9.14106 -6.16029,14.30774 -6.16028,5.1667 -19.37508,5.1667 z m 21.06421,-39.34632 q 8.84298,0 12.41991,-2.98079 3.57695,-2.98078 3.57695,-8.3462 0,-4.66988 -3.87503,-7.45195 -3.77566,-2.78205 -10.43273,-2.78205 h -18.18277 v 21.56099 z m 2.08654,30.90077 q 9.63786,0 13.61224,-2.98078 4.07374,-2.98079 4.07374,-8.44555 0,-11.32697 -17.58663,-11.32697 h -18.67956 v 22.7533 z M 443.53737,354.76858 q -5.04289,0 -8.4933,-3.4504 -3.4504,-3.45041 -3.4504,-8.4933 v -161.1073 q 0,-5.04289 3.4504,-8.4933 3.45041,-3.71581 8.4933,-3.71581 h 62.6381 q 28.39947,0 43.79358,13.00536 15.65951,13.00537 15.65951,35.03486 0,15.39411 -7.43162,25.74533 -7.16622,10.08578 -18.5791,15.12868 15.92494,5.0429 26.01072,16.19035 10.35122,11.14747 10.35122,28.13406 0,24.41824 -16.45577,38.21985 -16.45578,13.80162 -51.75604,13.80162 z M 499.8055,249.66399 q 23.62198,0 33.17695,-7.96249 9.55496,-7.96247 9.55496,-22.29491 0,-12.47454 -10.35121,-19.90617 -10.0858,-7.43164 -27.86864,-7.43164 H 455.7465 v 57.59521 z m 5.57372,82.54426 q 25.74531,0 36.36194,-7.96248 10.88204,-7.96247 10.88204,-22.56033 0,-30.25739 -46.97856,-30.25739 H 455.7465 v 60.7802 z m 192.16113,25.21447 q -27.33782,0 -48.57107,-11.9437 -21.23325,-12.20913 -32.91153,-33.7078 -11.67828,-21.76406 -11.67828,-49.3673 0,-28.13406 12.20911,-49.89812 12.20912,-21.76408 33.17697,-33.70779 21.23325,-11.94371 46.97856,-11.94371 20.70242,0 36.09652,5.0429 15.65953,5.04291 29.99197,14.06703 2.12333,1.06166 3.71581,3.71582 1.5925,2.65415 1.5925,5.83914 0,4.51208 -3.18498,7.69704 -2.91958,3.18499 -7.96247,3.18499 -2.91958,0 -5.57374,-1.32708 -12.47453,-7.43164 -24.94906,-11.14745 -12.47453,-3.71582 -27.07239,-3.71582 -20.1716,0 -36.36194,8.4933 -16.19034,8.49331 -25.47991,24.94906 -9.02414,16.19036 -9.02414,38.75069 0,20.70243 8.4933,37.15819 8.75872,16.19035 24.94909,25.74533 16.45577,9.28953 38.75068,9.28953 24.94908,0 46.44773,-11.67828 V 274.87845 H 703.3795 q -4.51206,0 -7.69704,-3.18498 -3.185,-3.18498 -3.185,-7.69706 0,-4.51206 3.185,-7.69705 3.18498,-3.18498 7.69704,-3.18498 h 52.28689 q 5.30832,0 9.02413,3.71581 3.71581,3.71583 3.71581,9.02414 v 60.24935 q 0,5.57371 -2.91956,10.08579 -2.65416,4.24664 -7.16622,6.36997 -29.72656,14.86328 -60.7802,14.86328 z" /></svg>
