<?xml version="1.0" encoding="UTF-8" standalone="no"?>
<svg
   xmlns:dc="http://purl.org/dc/elements/1.1/"
   xmlns:cc="http://creativecommons.org/ns#"
   xmlns:rdf="http://www.w3.org/1999/02/22-rdf-syntax-ns#"
   xmlns:svg="http://www.w3.org/2000/svg"
   xmlns="http://www.w3.org/2000/svg"
   xmlns:sodipodi="http://sodipodi.sourceforge.net/DTD/sodipodi-0.dtd"
   xmlns:inkscape="http://www.inkscape.org/namespaces/inkscape"
   width="1200"
   height="630"
   version="1.1"
   id="svg69"
   sodipodi:docname="card.svg"
   inkscape:version="1.0.1 (3bc2e813f5, 2020-09-07)"
   inkscape:export-filename="/var/home/jimmac/public_html/badmintonumuzea.eu/assets/card.png"
   inkscape:export-xdpi="96"
   inkscape:export-ydpi="96">
  <metadata
     id="metadata75">
    <rdf:RDF>
      <cc:Work
         rdf:about="">
        <dc:format>image/svg+xml</dc:format>
        <dc:type
           rdf:resource="http://purl.org/dc/dcmitype/StillImage" />
        <dc:title></dc:title>
      </cc:Work>
    </rdf:RDF>
  </metadata>
  <defs
     id="defs73" />
  <sodipodi:namedview
     pagecolor="#ffffff"
     bordercolor="#666666"
     borderopacity="1"
     objecttolerance="10"
     gridtolerance="10"
     guidetolerance="10"
     inkscape:pageopacity="0"
     inkscape:pageshadow="2"
     inkscape:window-width="640"
     inkscape:window-height="480"
     id="namedview71"
     showgrid="false"
     inkscape:current-layer="svg69"
     inkscape:document-rotation="0"
     borderlayer="true"
     inkscape:showpageshadow="false" />
  <rect
     style="font-variation-settings:normal;opacity:1;vector-effect:none;fill:#e01b24;fill-opacity:1;stroke:none;stroke-width:51.7752;stroke-linecap:round;stroke-linejoin:round;stroke-miterlimit:4;stroke-dasharray:none;stroke-dashoffset:0;stroke-opacity:1;stop-color:#000000;stop-opacity:1"
     id="rect77"
     width="1200"
     height="630"
     x="0"
     y="0" />
  <g
     id="g107"
     transform="translate(-26.591171,-98.491761)">
    <text
       xml:space="preserve"
       style="font-style:normal;font-variant:normal;font-weight:bold;font-stretch:normal;font-size:109.009px;line-height:1.25;font-family:'Varela Round';-inkscape-font-specification:'Varela Round, Bold';font-variant-ligatures:normal;font-variant-caps:normal;font-variant-numeric:normal;font-variant-east-asian:normal;text-align:center;letter-spacing:0px;word-spacing:0px;text-anchor:middle;fill:#ffffff;stroke-width:1.3207"
       x="754.3501"
       y="417.36972"
       id="text2867"><tspan
         sodipodi:role="line"
         id="tspan2865"
         x="754.3501"
         y="417.36972"
         style="font-style:normal;font-variant:normal;font-weight:bold;font-stretch:normal;font-size:109.009px;font-family:'Varela Round';-inkscape-font-specification:'Varela Round, Bold';font-variant-ligatures:normal;font-variant-caps:normal;font-variant-numeric:normal;font-variant-east-asian:normal;fill:#ffffff;stroke-width:1.3207">Badminton</tspan></text>
    <text
       xml:space="preserve"
       style="font-style:normal;font-variant:normal;font-weight:bold;font-stretch:normal;font-size:59.2864px;line-height:1.25;font-family:'Varela Round';-inkscape-font-specification:'Varela Round, Bold';font-variant-ligatures:normal;font-variant-caps:normal;font-variant-numeric:normal;font-variant-east-asian:normal;text-align:center;letter-spacing:0px;word-spacing:0px;text-anchor:middle;fill:#ffffff;stroke-width:0.718286"
       x="750.80731"
       y="484.28815"
       id="text2871"><tspan
         sodipodi:role="line"
         id="tspan2869"
         x="772.6958"
         y="484.28815"
         style="font-style:normal;font-variant:normal;font-weight:bold;font-stretch:normal;font-size:59.2864px;font-family:'Varela Round';-inkscape-font-specification:'Varela Round, Bold';font-variant-ligatures:normal;font-variant-caps:normal;font-variant-numeric:normal;font-variant-east-asian:normal;letter-spacing:43.777px;fill:#ffffff;stroke-width:0.718286">U MUZEA</tspan></text>
    <g
       id="g2883"
       transform="matrix(2.729083,0,0,2.729083,-204.87652,-732.2199)">
      <path
         id="rect2873"
         style="fill:#ffffff;fill-opacity:1;stroke-width:60;stroke-linecap:round;stroke-linejoin:round;stop-color:#000000"
         d="m 252.66602,666.96289 c -2.09413,0 -4.18835,0.80163 -5.79297,2.40625 l -44.98243,44.98438 c -3.20924,3.20924 -3.20925,8.37472 0,11.58398 l 44.98243,44.98438 c 3.20925,3.20925 8.37669,3.20924 11.58593,0 l 44.98243,-44.98438 c 3.20924,-3.20925 3.20925,-8.37473 0,-11.58398 l -44.98243,-44.98438 c -1.60462,-1.60463 -3.69884,-2.40625 -5.79296,-2.40625 z m -18.38477,27.56055 38.18555,15.80273 v 5.32617 c -10.10164,-1.4124 -21.09386,-4.84546 -29.95118,-3.40625 -5.96722,-3.60369 -6.55188,-11.44351 -8.23437,-17.72265 z m 41.98828,17.0664 c 3.07628,0 5.9189,1.64056 7.45703,4.30469 1.53814,2.66413 1.53814,5.9472 0,8.61133 -1.53813,2.66413 -4.38075,4.30469 -7.45703,4.30469 z m -26.70508,1.11719 c 7.75752,0.17291 16.09353,2.22456 22.90235,3.45117 v 8.45118 c -14.04552,2.17874 -31.75827,6.48782 -42.33008,-4.08399 4.49125,-6.28524 11.67021,-7.99127 19.42773,-7.81836 z m 22.90235,12.28711 v 5.32617 l -37.84766,15.47071 c 1.68249,-6.27915 1.92926,-13.78498 7.89648,-17.38868 8.85734,1.43922 19.84954,-1.9958 29.95118,-3.4082 z"
         transform="matrix(0.75000001,0,0,0.75000001,6.506836,-120.29378)" />
    </g>
  </g>
</svg>
