<svg xmlns="http://www.w3.org/2000/svg" width="16" height="16"><path style="font-variation-settings:normal" fill="#e01b24" d="M0 0h16v16H0z"/><path d="M8.078.01c-.314 0-.629.121-.87.362L.459 7.123a1.227 1.227 0 000 1.739l6.75 6.751a1.227 1.227 0 001.74 0l6.75-6.751a1.227 1.227 0 000-1.739L8.948.372a1.226 1.226 0 00-.87-.361zm-2.76 4.137L11.05 6.52v.8c-1.516-.213-3.166-.728-4.495-.512-.896-.54-.984-1.717-1.236-2.66zm6.302 2.561a1.292 1.292 0 110 2.585zm-4.007.168c1.164.026 2.415.334 3.437.518v1.269c-2.108.327-4.767.973-6.353-.613.674-.944 1.751-1.2 2.916-1.174zM11.05 8.72v.8l-5.68 2.322c.252-.943.29-2.07 1.185-2.61 1.329.216 2.979-.3 4.495-.512z" fill="#fff"/></svg>