<svg xmlns="http://www.w3.org/2000/svg" width="16" height="16">
<style>
  #fg { #211b35; }
  #bg { fill: #f4ecdf; }
  @media (prefers-color-scheme: dark) {
    #bg { #211b35; }
    #fg { fill: #f4ecdf; }
  }
</style>  
<path id="bg" d="M0 0h16v16H0z" />
<path id="fg" d="M1.578 12.934a.474.474 0 0 1-.348-.142.474.474 0 0 1-.142-.348V5.562c0-.138.047-.255.142-.35a.457.457 0 0 1 .348-.152H4.15c.777 0 1.377.178 1.798.534.429.356.643.836.643 1.439 0 .421-.102.55-.305.833-.196.276-.45.483-.763.621.436.139.792.36 1.068.665.283.305.425.914.425 1.378 0 .669-.225 1.46-.676 1.837-.45.378-1.158.567-2.125.567zm2.31-4.806c.647 0 1.101-.11 1.363-.327.261-.218.392-.3.392-.692a.957.957 0 0 0-.425-.817c-.276-.204-.658-.305-1.144-.305H2.08v2.14zm.23 3.88c.704 0 1.202-.11 1.492-.327.298-.218.447-.795.447-1.194 0-.828-.643-1.466-1.929-1.466H2.08v2.987zm7.888 1.035c-.748 0-1.412-.163-1.994-.49a3.487 3.487 0 0 1-1.35-1.384c-.32-.596-.48-1.763-.48-2.518 0-.77.167-1.23.501-1.825a3.564 3.564 0 0 1 1.362-1.384 3.866 3.866 0 0 1 1.929-.49c.566 0 1.06.068 1.482.206.428.138.839.33 1.231.578a.457.457 0 0 1 .087.708.421.421 0 0 1-.327.131.505.505 0 0 1-.229-.055 4.532 4.532 0 0 0-1.024-.457 3.878 3.878 0 0 0-1.111-.153c-.552 0-1.05.117-1.493.349a2.536 2.536 0 0 0-1.046 1.024c-.247.443-.37.75-.37 1.368 0 .567.116 1.298.348 1.749.24.443.581 1.063 1.024 1.324.45.255.981.382 1.591.382.683 0 1.319-.16 1.907-.48V9.163h-1.798a.43.43 0 0 1-.316-.13.43.43 0 0 1-.13-.317.43.43 0 0 1 .13-.316.43.43 0 0 1 .316-.13h2.147c.145 0 .269.05.37.152a.504.504 0 0 1 .153.37v2.965a.746.746 0 0 1-.414.676 5.522 5.522 0 0 1-2.496.61z"/>
</svg>
