<?xml version="1.0" encoding="UTF-8" standalone="no"?>
<svg
   width="220"
   height="100"
   version="1.1"
   id="svg3"
   sodipodi:docname="logo-stencil-bw.svg"
   inkscape:version="1.3.1 (91b66b0783, 2023-11-16)"
   xmlns:inkscape="http://www.inkscape.org/namespaces/inkscape"
   xmlns:sodipodi="http://sodipodi.sourceforge.net/DTD/sodipodi-0.dtd"
   xmlns="http://www.w3.org/2000/svg"
   xmlns:svg="http://www.w3.org/2000/svg">
  <defs
     id="defs3" />
  <sodipodi:namedview
     id="namedview3"
     pagecolor="#505050"
     bordercolor="#ffffff"
     borderopacity="1"
     inkscape:showpageshadow="0"
     inkscape:pageopacity="0"
     inkscape:pagecheckerboard="1"
     inkscape:deskcolor="#d1d1d1"
     inkscape:current-layer="svg3" />
  <path
     d="M 2.6506715,0 Q 2.2960041,0 2.053337,-0.2426671 1.8106699,-0.48533421 1.8106699,-0.84000152 V -12.170689 q 0,-0.354667 0.2426671,-0.597334 0.2426671,-0.261334 0.5973345,-0.261334 h 4.4053412 q 1.997337,0 3.0800053,0.914668 1.101336,0.914669 1.101336,2.4640049 0,1.0826686 -0.522668,1.8106699 -0.504001,0.7093347 -1.306669,1.064002 1.120002,0.3546673 1.829337,1.1386687 0.728001,0.7840014 0.728001,1.9786702 0,1.7173365 -1.157335,2.68800488 Q 9.6506841,0 7.1680129,0 Z m 3.9573404,-7.3920133 q 1.6613364,0 2.3333376,-0.5600011 0.6720012,-0.560001 0.6720012,-1.5680028 0,-0.8773348 -0.7280013,-1.4000028 -0.7093346,-0.522667 -1.9600036,-0.522667 H 3.5093397 v 4.0506737 z m 0.3920007,5.8053438 q 1.81067,0 2.557338,-0.560001 0.7653344,-0.5600011 0.7653344,-1.5866696 0,-2.1280038 -3.3040057,-2.1280038 H 3.5093397 v 4.2746744 z M 20.514718,0.186667 q -1.92267,0 -3.416006,-0.84000151 -1.493336,-0.85866819 -2.314671,-2.37067099 -0.821334,-1.5306694 -0.821334,-3.4720062 0,-1.9786703 0.858668,-3.5093393 0.858668,-1.53067 2.333337,-2.370671 1.493336,-0.840002 3.304006,-0.840002 1.456003,0 2.538672,0.354667 1.101335,0.354668 2.109337,0.989336 0.149333,0.07467 0.261333,0.261333 0.112001,0.186667 0.112001,0.410668 0,0.317334 -0.224001,0.541334 -0.205333,0.224 -0.560001,0.224 -0.205333,0 -0.392,-0.09333 -0.877335,-0.522668 -1.75467,-0.784001 -0.877335,-0.261334 -1.904004,-0.261334 -1.418669,0 -2.557338,0.597334 -1.138668,0.597335 -1.792003,1.75467 -0.634668,1.1386687 -0.634668,2.7253383 0,1.4560026 0.597335,2.613338 0.616001,1.1386687 1.75467,1.81067 1.157335,0.6533345 2.725338,0.6533345 1.75467,0 3.266672,-0.8213348 v -3.3786728 h -3.080005 q -0.317334,0 -0.541335,-0.2240004 -0.224,-0.2240004 -0.224,-0.5413343 0,-0.3173339 0.224,-0.5413343 0.224001,-0.2240004 0.541335,-0.2240004 h 3.67734 q 0.373334,0 0.634668,0.2613338 0.261333,0.2613338 0.261333,0.6346678 v 4.237341 q 0,0.3920007 -0.205333,0.7093346 -0.186667,0.2986672 -0.504001,0.44800078 Q 22.698722,0.186667 20.514718,0.186667 Z m 14.05603,-0.0933335 q -0.354667,0 -0.597335,-0.2426671 -0.242667,-0.24266711 -0.242667,-0.59733441 V -12.264022 q 0,-0.354667 0.242667,-0.597335 0.242668,-0.261333 0.597335,-0.261333 0.354667,0 0.597334,0.261333 0.261334,0.242668 0.261334,0.597335 v 5.9360106 l 6.384012,-6.4960116 q 0.261333,-0.298667 0.634667,-0.298667 0.317334,0 0.541335,0.224 0.242667,0.205334 0.242667,0.522668 0,0.373334 -0.205334,0.578667 l -4.312008,4.2933415 4.946676,6.2346779 q 0.205334,0.2613338 0.205334,0.54133429 0.01867,0.3360006 -0.224001,0.57866771 -0.242667,0.2426671 -0.597334,0.2426671 -0.429334,0 -0.672001,-0.3360006 L 37.55742,-6.3840115 35.429416,-4.237341 v 3.49067299 q 0,0.3546673 -0.261334,0.59733441 -0.242667,0.2426671 -0.597334,0.2426671 z M 47.413437,0 Q 46.928103,0 46.573436,-0.33600061 46.237435,-0.69066791 46.237435,-1.1760021 V -12.264022 q 0,-0.354667 0.242667,-0.597335 0.242668,-0.261333 0.597335,-0.261333 0.354667,0 0.597334,0.261333 0.261334,0.242668 0.261334,0.597335 v 10.5653523 h 6.104011 q 0.354667,0 0.597335,0.2613338 0.261333,0.2426671 0.261333,0.59733438 0,0.35466731 -0.261333,0.59733442 Q 54.394783,0 54.040116,0 Z m 14.466689,0.186667 q -1.325336,0 -2.557338,-0.56000101 -1.232002,-0.56000101 -2.016004,-1.69866969 -0.784001,-1.1573355 -0.784001,-2.8186718 v -7.3733465 q 0,-0.354667 0.242667,-0.597335 0.242667,-0.261333 0.597335,-0.261333 0.354667,0 0.597334,0.261333 0.261334,0.242668 0.261334,0.597335 v 7.4293466 q 0,1.120002 0.504001,1.9040034 0.522667,0.7840015 1.362669,1.1760022 0.840001,0.3920007 1.792003,0.3920007 0.952002,0 1.792003,-0.3920007 0.840002,-0.3920007 1.344003,-1.1760022 0.522667,-0.7840014 0.522667,-1.9040034 v -7.4293466 q 0,-0.354667 0.242667,-0.597335 0.242668,-0.261333 0.597335,-0.261333 0.354667,0 0.597334,0.261333 0.261334,0.242668 0.261334,0.597335 v 7.3733465 q 0,1.6613363 -0.784001,2.8186718 -0.784002,1.13866868 -2.016004,1.69866969 Q 63.205462,0.186667 61.880126,0.186667 Z M 71.605467,0 Q 71.2508,0 71.008133,-0.2426671 70.765466,-0.48533421 70.765466,-0.84000152 V -12.170689 q 0,-0.354667 0.242667,-0.597334 0.242667,-0.261334 0.597334,-0.261334 h 4.405342 q 1.997337,0 3.080005,0.914668 1.101335,0.914669 1.101335,2.4640049 0,1.0826686 -0.522667,1.8106699 -0.504001,0.7093347 -1.306669,1.064002 1.120002,0.3546673 1.829336,1.1386687 0.728002,0.7840014 0.728002,1.9786702 0,1.7173365 -1.157336,2.68800488 Q 78.60548,0 76.122809,0 Z m 3.957341,-7.3920133 q 1.661336,0 2.333337,-0.5600011 0.672002,-0.560001 0.672002,-1.5680028 0,-0.8773348 -0.728002,-1.4000028 -0.709334,-0.522667 -1.960003,-0.522667 h -3.416006 v 4.0506737 z m 0.392,5.8053438 q 1.81067,0 2.557338,-0.560001 0.765335,-0.5600011 0.765335,-1.5866696 0,-2.1280038 -3.304006,-2.1280038 h -3.509339 v 4.2746744 z"
     id="text3"
     style="font-weight:bold;font-size:18.6667px;line-height:1.25;font-family:'Varela Round';-inkscape-font-specification:'Varela Round, Bold';letter-spacing:0px;word-spacing:0px;white-space:pre;fill:#f4ecdf"
     transform="matrix(2.1313192,0,0,2.1313192,23.42704,62.736569)"
     aria-label="BG KLUB" />
</svg>
