<svg xmlns="http://www.w3.org/2000/svg" width="256" height="256"><path d="M54.288 195.482q-.863 0-1.453-.59-.59-.59-.59-1.453v-28.02q0-.862.59-1.453.59-.635 1.453-.635.863 0 1.453.635.636.59.636 1.454v14.44l15.53-15.803q.636-.726 1.545-.726.772 0 1.316.545.59.5.59 1.271 0 .908-.499 1.408L64.37 177l12.034 15.167q.5.636.5 1.317.045.818-.545 1.408-.59.59-1.453.59-1.045 0-1.635-.817l-11.716-14.94-5.177 5.222v8.492q0 .863-.636 1.453-.59.59-1.453.59zm43.542-.227q-1.18 0-2.043-.817-.818-.863-.818-2.044V165.42q0-.863.59-1.454.591-.635 1.454-.635t1.453.635q.636.59.636 1.454v25.703h14.85q.862 0 1.453.635.635.59.635 1.454 0 .862-.635 1.453-.59.59-1.454.59zm47.494.454q-3.225 0-6.222-1.362-2.997-1.362-4.904-4.133-1.908-2.815-1.908-6.857V165.42q0-.863.59-1.454.591-.635 1.454-.635t1.453.635q.636.59.636 1.454v18.074q0 2.724 1.226 4.632 1.272 1.907 3.315 2.86 2.044.954 4.36.954 2.316 0 4.36-.954 2.043-.953 3.269-2.86 1.271-1.908 1.271-4.632V165.42q0-.863.59-1.454.591-.635 1.454-.635t1.453.635q.636.59.636 1.454v17.937q0 4.042-1.908 6.857-1.907 2.77-4.904 4.133-2.997 1.362-6.221 1.362zm35.958-.454q-.863 0-1.453-.59-.59-.59-.59-1.453v-27.565q0-.863.59-1.453.59-.636 1.453-.636H192q4.86 0 7.493 2.225 2.68 2.225 2.68 5.994 0 2.634-1.272 4.405-1.226 1.726-3.179 2.589 2.725.863 4.45 2.77 1.772 1.907 1.772 4.813 0 4.178-2.816 6.54-2.815 2.361-8.855 2.361zm9.628-17.983q4.041 0 5.676-1.362 1.635-1.363 1.635-3.815 0-2.134-1.771-3.406-1.726-1.271-4.768-1.271h-8.31v9.854zm.953 14.123q4.405 0 6.222-1.362 1.862-1.363 1.862-3.86 0-5.177-8.038-5.177h-8.538v10.4zM56.49 146.176q-2.305 0-3.882-1.577t-1.577-3.882V67.084q0-2.305 1.577-3.882 1.577-1.698 3.882-1.698h28.628q12.98 0 20.016 5.944 7.157 5.944 7.157 16.012 0 7.036-3.397 11.767-3.275 4.61-8.491 6.915 7.278 2.304 11.888 7.4 4.73 5.094 4.73 12.858 0 11.16-7.52 17.468-7.521 6.308-23.655 6.308zm25.717-48.038q10.796 0 15.163-3.639 4.367-3.639 4.367-10.19 0-5.7-4.731-9.098-4.61-3.396-12.737-3.396h-22.2v26.323zm2.547 37.727q11.767 0 16.62-3.64 4.973-3.638 4.973-10.31 0-13.83-21.472-13.83H62.07v27.78zm87.826 11.524q-12.494 0-22.199-5.459-9.704-5.58-15.042-15.406-5.337-9.947-5.337-22.563 0-12.858 5.58-22.805 5.58-9.948 15.163-15.406 9.705-5.46 21.471-5.46 9.462 0 16.498 2.306 7.157 2.304 13.708 6.429.97.485 1.698 1.698t.728 2.669q0 2.062-1.456 3.518-1.334 1.455-3.639 1.455-1.334 0-2.547-.606-5.702-3.397-11.403-5.095-5.702-1.698-12.374-1.698-9.219 0-16.619 3.882-7.4 3.881-11.645 11.402-4.124 7.4-4.124 17.711 0 9.462 3.881 16.983 4.003 7.4 11.403 11.767 7.521 4.246 17.711 4.246 11.403 0 21.229-5.338v-21.956h-20.016q-2.062 0-3.518-1.456-1.455-1.456-1.455-3.518t1.455-3.518q1.456-1.456 3.518-1.456h23.898q2.426 0 4.124 1.699 1.698 1.698 1.698 4.124v27.537q0 2.547-1.334 4.61-1.213 1.94-3.275 2.91-13.587 6.794-27.78 6.794z" style="font-size:63.8895px;line-height:1.25;font-family:&quot;Varela Round&quot;;-inkscape-font-specification:&quot;Varela Round, Normal&quot;;text-align:center;letter-spacing:17.3037px;word-spacing:0;text-anchor:middle;fill:#f4ecdf;fill-opacity:1;stroke-width:51.7752;font-variation-settings:normal;opacity:1;vector-effect:none;stroke:none;stroke-linecap:round;stroke-linejoin:round;stroke-miterlimit:4;stroke-dasharray:none;stroke-dashoffset:0;stroke-opacity:1;-inkscape-stroke:none;stop-color:#000;stop-opacity:1"/></svg>