<svg xmlns="http://www.w3.org/2000/svg" viewBox="0 0 256 256"><path d="M4.917 142.273q-.908 0-1.529-.62-.62-.62-.62-1.529V110.65q0-.906.62-1.527.62-.668 1.53-.668.907 0 1.528.667.668.621.668 1.53v15.189l16.336-16.623q.669-.763 1.625-.763.812 0 1.384.573.621.526.621 1.337 0 .955-.525 1.48l-11.033 10.988 12.659 15.954q.525.668.525 1.385.048.86-.573 1.481-.621.62-1.529.62-1.1 0-1.72-.859L12.562 125.7l-5.446 5.494v8.932q0 .908-.67 1.529-.62.62-1.528.62zm45.801-.239q-1.241 0-2.15-.859-.86-.908-.86-2.15v-28.373q0-.908.62-1.53.622-.667 1.53-.667t1.529.667q.669.621.669 1.53v27.036h15.62q.907 0 1.528.668.668.621.668 1.53 0 .906-.668 1.528-.621.62-1.53.62zm49.956.478q-3.392 0-6.544-1.433-3.152-1.432-5.158-4.347-2.007-2.961-2.007-7.212v-18.868q0-.908.62-1.529.622-.668 1.53-.668t1.529.667q.668.621.668 1.53v19.012q0 2.865 1.29 4.872 1.338 2.006 3.487 3.008 2.15 1.004 4.586 1.004 2.436 0 4.586-1.004 2.15-1.002 3.439-3.008 1.336-2.007 1.336-4.872v-19.012q0-.908.621-1.53.621-.667 1.53-.667.908 0 1.528.667.67.621.67 1.53v18.868q0 4.25-2.008 7.212-2.006 2.914-5.158 4.347-3.153 1.433-6.544 1.433zm37.824-.478q-.908 0-1.529-.62-.62-.62-.62-1.528V110.89q0-.908.62-1.529.621-.67 1.529-.67h11.274q5.113 0 7.882 2.342 2.818 2.34 2.818 6.304 0 2.772-1.337 4.634-1.29 1.815-3.344 2.724 2.866.907 4.68 2.914 1.864 2.005 1.864 5.062 0 4.395-2.961 6.879-2.961 2.483-9.315 2.483zm10.127-18.915q4.251 0 5.971-1.433 1.72-1.434 1.72-4.013 0-2.244-1.863-3.583-1.816-1.337-5.016-1.337h-8.74v10.366zm1.002 14.855q4.634 0 6.545-1.432 1.958-1.434 1.958-4.061 0-5.445-8.453-5.445h-8.981v10.94zM7.234 90.411q-2.425 0-4.084-1.66-1.659-1.658-1.659-4.084V7.216q0-2.424 1.659-4.083 1.659-1.786 4.083-1.786h30.113Q51 1.347 58.4 7.6q7.529 6.251 7.529 16.841 0 7.401-3.574 12.378-3.444 4.85-8.932 7.275 7.656 2.422 12.506 7.783 4.974 5.357 4.974 13.525 0 11.738-7.91 18.373-7.91 6.636-24.881 6.636zm27.05-50.53q11.356 0 15.949-3.828 4.594-3.83 4.594-10.72 0-5.995-4.976-9.57-4.85-3.571-13.398-3.571H13.101V39.88zm2.679 39.683q12.377 0 17.482-3.829 5.23-3.827 5.23-10.845 0-14.547-22.585-14.547H13.102v29.22Zm92.382 12.121q-13.142 0-23.35-5.74-10.209-5.871-15.822-16.206-5.614-10.464-5.614-23.734 0-13.525 5.868-23.988 5.87-10.464 15.95-16.204Q116.586.068 128.962.068q9.952 0 17.354 2.425 7.527 2.425 14.418 6.763 1.02.511 1.786 1.786.766 1.276.766 2.808 0 2.17-1.531 3.7-1.404 1.531-3.828 1.531-1.403 0-2.68-.638-5.998-3.572-11.994-5.359-5.998-1.786-13.015-1.786-9.698 0-17.482 4.084-7.783 4.082-12.248 11.992-4.338 7.785-4.338 18.63 0 9.953 4.082 17.864 4.211 7.784 11.994 12.378 7.911 4.466 18.63 4.466 11.994 0 22.33-5.615V52.003h-21.054q-2.17 0-3.7-1.532-1.531-1.532-1.531-3.7 0-2.17 1.53-3.7 1.532-1.532 3.7-1.532h25.138q2.552 0 4.339 1.787 1.786 1.786 1.786 4.338V76.63q0 2.68-1.404 4.85-1.275 2.04-3.445 3.06-14.292 7.146-29.221 7.146z" style="font-size:63.8895px;line-height:1.25;font-family:&quot;Varela Round&quot;;-inkscape-font-specification:&quot;Varela Round, Normal&quot;;font-variation-settings:normal;text-align:center;letter-spacing:17.3037px;word-spacing:0;text-anchor:middle;opacity:1;vector-effect:none;fill:#f4ecdf;fill-opacity:1;stroke:none;stroke-width:54.4608;stroke-linecap:round;stroke-linejoin:round;stroke-miterlimit:4;stroke-dasharray:none;stroke-dashoffset:0;stroke-opacity:1;-inkscape-stroke:none;stop-color:#000;stop-opacity:1"/></svg>