<svg xmlns="http://www.w3.org/2000/svg" width="220" height="100"><g aria-label="Badminton" style="line-height:1.25;-inkscape-font-specification:'Varela Round, Bold';font-variant-ligatures:normal;font-variant-caps:normal;font-variant-numeric:normal;font-variant-east-asian:normal;text-align:center" font-weight="700" font-size="27.258" font-family="Varela Round" letter-spacing="0" word-spacing="0" text-anchor="middle" fill="#fff" stroke-width=".33"><path d="M76.192 51.208q-.518 0-.872-.355-.354-.354-.354-.872V33.435q0-.518.354-.872.354-.382.872-.382h6.433q2.917 0 4.498 1.336 1.608 1.336 1.608 3.598 0 1.581-.763 2.644-.736 1.036-1.908 1.554 1.635.518 2.671 1.663 1.063 1.144 1.063 2.889 0 2.508-1.69 3.925-1.69 1.418-5.315 1.418zm5.779-10.795q2.426 0 3.407-.817.982-.818.982-2.29 0-1.281-1.063-2.045-1.036-.763-2.863-.763h-4.988v5.915zm.572 8.478q2.645 0 3.735-.818 1.117-.818 1.117-2.317 0-3.108-4.824-3.108h-5.125v6.243zM96.909 51.48q-1.2 0-2.236-.49-1.008-.491-1.608-1.418-.6-.954-.6-2.18 0-2.018 1.581-3.217 1.609-1.2 4.689-1.2h3.298v-.218q0-1.799-.9-2.59-.872-.79-2.752-.79-1.036 0-1.854.164-.79.164-1.772.49-.218.055-.354.055-.41 0-.709-.3-.3-.3-.3-.736 0-.736.709-1.035 2.317-.982 4.716-.982 1.88 0 3.162.763 1.308.764 1.908 1.99.627 1.2.627 2.617v7.714q0 .518-.382.873-.354.354-.872.354t-.872-.354q-.355-.355-.355-.873v-.708q-2.017 2.071-5.124 2.071zm.926-2.18q1.2 0 2.317-.573 1.118-.6 1.881-1.472v-2.29h-2.971q-4.116 0-4.116 2.154 0 .981.654 1.58.682.6 2.235.6zM114.436 51.48q-1.69 0-3.217-.845-1.499-.872-2.453-2.508-.927-1.662-.927-3.87t.927-3.844q.954-1.662 2.453-2.508 1.527-.872 3.217-.872 2.671 0 4.66 2.072v-6.678q0-.546.355-.9.382-.354.9-.354t.872.381q.354.355.354.873v17.69q0 .518-.354.873-.354.354-.872.354t-.9-.354q-.354-.355-.354-.873v-.708q-1.99 2.071-4.661 2.071zm.354-2.317q1.254 0 2.344-.545 1.118-.572 1.963-1.5v-5.723q-.845-.927-1.963-1.472-1.09-.573-2.344-.573-2.017 0-3.244 1.281-1.226 1.281-1.226 3.626 0 2.344 1.226 3.625 1.227 1.281 3.244 1.281zM127.11 51.344q-.517 0-.871-.354-.355-.355-.355-.873V38.423q0-.518.355-.872.354-.381.872-.381t.872.381q.382.354.382.872v1.118q.763-1.09 1.826-1.8 1.09-.708 2.808-.708 1.526 0 2.616.818t1.554 1.99q1.69-2.808 5.016-2.808 1.526 0 2.535.763 1.036.764 1.526 1.963.49 1.2.49 2.508v7.85q0 .518-.38.873-.355.354-.873.354t-.872-.354q-.355-.355-.355-.873v-7.36q0-1.771-.627-2.59-.627-.844-2.153-.844-1.39 0-2.317.736-.9.709-1.608 1.88v8.178q0 .518-.382.873-.354.354-.872.354t-.872-.354q-.355-.355-.355-.873v-7.36q0-1.771-.627-2.59-.627-.844-2.153-.844-1.39 0-2.317.736-.9.709-1.608 1.88v8.178q0 .518-.382.873-.354.354-.872.354zM152.08 34.47q-.573 0-.982-.408-.409-.409-.409-.981v-.11q0-.572.41-.98.408-.41.98-.41h.164q.572 0 .981.41.41.408.41.98v.11q0 .572-.41.981-.409.409-.981.409zm.054 16.874q-.518 0-.872-.354-.355-.355-.355-.873V38.423q0-.518.355-.872.354-.381.872-.381.545 0 .9.354.354.354.354.9v11.693q0 .518-.382.873-.354.354-.872.354zM158.921 51.344q-.518 0-.872-.354-.354-.355-.354-.873V38.423q0-.518.354-.872.354-.381.872-.381t.873.381q.381.354.381.872v1.118q1.036-1.145 2.235-1.826 1.2-.682 2.835-.682 1.5 0 2.59.709 1.117.709 1.69 1.935.6 1.227.6 2.699v7.741q0 .518-.382.873-.354.354-.872.354t-.873-.354q-.354-.355-.354-.873v-7.469q0-3.325-2.998-3.325-1.363 0-2.454.709-1.063.708-2.017 1.908v8.177q0 .518-.381.873-.355.354-.873.354zM178.765 51.48q-3.98 0-3.98-3.598v-8.45h-1.935q-.218 0-.381-.136-.137-.164-.137-.382 0-.273.246-.463l3.707-3.626q.245-.245.463-.245.218 0 .355.164.163.163.163.381v2.18h3.08q.464 0 .764.3t.3.764q0 .436-.3.763-.3.3-.764.3h-3.08v8.232q0 1.063.49 1.363.519.273 1.282.273.545 0 1.09-.164l.218-.055q.137-.027.327-.027.382 0 .682.3.3.273.3.681 0 .627-.627.955-1.063.49-2.263.49zM190.323 51.48q-2.099 0-3.68-.9-1.581-.899-2.453-2.534-.845-1.663-.845-3.79 0-2.125.845-3.761.872-1.663 2.453-2.562 1.581-.9 3.68-.9 2.072 0 3.653.9 1.58.9 2.453 2.562.872 1.636.872 3.762 0 2.126-.872 3.789-.873 1.635-2.453 2.535-1.581.9-3.653.9zm0-2.262q1.117 0 2.126-.518 1.036-.518 1.69-1.636.682-1.117.682-2.835 0-1.69-.682-2.807-.654-1.118-1.69-1.608-1.009-.518-2.126-.518-1.145 0-2.18.518-1.01.49-1.664 1.608-.654 1.117-.654 2.807 0 1.718.654 2.835.655 1.118 1.663 1.636 1.036.518 2.18.518zM201.99 51.344q-.518 0-.873-.354-.354-.355-.354-.873V38.423q0-.518.354-.872.355-.381.872-.381.518 0 .873.381.381.354.381.872v1.118q1.036-1.145 2.236-1.826 1.199-.682 2.834-.682 1.5 0 2.59.709 1.118.709 1.69 1.935.6 1.227.6 2.699v7.741q0 .518-.382.873-.354.354-.872.354t-.872-.354q-.355-.355-.355-.873v-7.469q0-3.325-2.998-3.325-1.363 0-2.454.709-1.063.708-2.017 1.908v8.177q0 .518-.381.873-.355.354-.873.354z" style="-inkscape-font-specification:'Varela Round, Bold';font-variant-ligatures:normal;font-variant-caps:normal;font-variant-numeric:normal;font-variant-east-asian:normal"/></g><g aria-label="U MUZEA" style="line-height:1.25;-inkscape-font-specification:'Varela Round, Bold';font-variant-ligatures:normal;font-variant-caps:normal;font-variant-numeric:normal;font-variant-east-asian:normal;text-align:center" font-weight="700" font-size="14.825" font-family="Varela Round" letter-spacing="10.947" word-spacing="0" text-anchor="middle" fill="#fff" stroke-width=".18"><path d="M80.345 68.09q-1.052 0-2.03-.445-.98-.445-1.602-1.35-.623-.919-.623-2.238V58.2q0-.282.193-.474.193-.208.475-.208.281 0 .474.208.207.192.207.474v5.9q0 .89.4 1.512.416.623 1.083.934.667.312 1.423.312t1.423-.312q.667-.31 1.068-.934.415-.622.415-1.512v-5.9q0-.282.193-.474.192-.208.474-.208t.474.208q.208.192.208.474v5.856q0 1.32-.623 2.238-.622.905-1.6 1.35-.98.444-2.032.444zM113.817 68.015q-.282 0-.474-.193-.193-.192-.193-.474v-8.85q0-.4.282-.682.281-.297.681-.297h.49q.296 0 .533.178.252.178.371.445l3.365 8.39 3.366-8.39q.118-.267.355-.445.252-.178.549-.178h.49q.4 0 .681.297.282.281.282.682v8.85q0 .282-.193.474-.193.193-.474.193-.282 0-.49-.193-.192-.192-.192-.474v-8.42l-3.425 8.464q-.119.282-.385.46-.252.163-.564.163-.311 0-.578-.163-.252-.178-.37-.46l-3.425-8.465v8.421q0 .282-.208.474-.192.193-.474.193zM142.598 68.09q-1.052 0-2.03-.445-.98-.445-1.602-1.35-.623-.919-.623-2.238V58.2q0-.282.193-.474.193-.208.475-.208.281 0 .474.208.207.192.207.474v5.9q0 .89.4 1.512.416.623 1.083.934.667.312 1.423.312t1.423-.312q.667-.31 1.068-.934.415-.622.415-1.512v-5.9q0-.282.193-.474.192-.208.474-.208t.474.208q.208.192.208.474v5.856q0 1.32-.623 2.238-.622.905-1.6 1.35-.98.444-2.032.444zM160.72 67.941q-.356 0-.608-.252t-.252-.608q0-.326.178-.548l6.197-7.65h-5.708q-.266 0-.46-.178-.177-.193-.177-.46 0-.266.178-.46.193-.192.46-.192h6.433q.416 0 .653.267.252.267.252.652 0 .149-.074.312-.06.163-.163.281l-6.123 7.576h5.811q.267 0 .445.193.193.178.193.444 0 .267-.193.445-.178.178-.445.178zM181.674 67.941q-.282 0-.475-.193-.192-.192-.192-.474v-8.999q0-.282.192-.474.193-.208.475-.208h5.945q.266 0 .444.193.193.178.193.445t-.193.444q-.178.178-.444.178h-5.263v3.277h4.729q.267 0 .445.192.192.178.192.445t-.192.445q-.178.178-.445.178h-4.73v3.29h5.264q.266 0 .444.194.193.178.193.444 0 .267-.193.445-.178.178-.444.178zM201.382 68.015q-.296 0-.49-.193-.177-.192-.177-.474 0-.119.074-.296l3.78-8.925q.119-.267.327-.43.222-.178.533-.178h.148q.312 0 .52.178.222.163.34.43l3.78 8.925q.075.177.075.296 0 .282-.193.474-.178.193-.474.193-.208 0-.386-.104-.163-.118-.252-.311l-.963-2.313h-5.04l-.965 2.313q-.089.193-.266.311-.163.104-.371.104zm2.12-3.958h4.003l-2.002-4.818z" style="-inkscape-font-specification:'Varela Round, Bold';font-variant-ligatures:normal;font-variant-caps:normal;font-variant-numeric:normal;font-variant-east-asian:normal"/></g><path d="M37.664 23.018a4.18 4.18 0 00-2.965 1.231L11.676 47.273a4.183 4.183 0 000 5.93L34.7 76.225a4.184 4.184 0 005.93 0l23.023-23.024a4.183 4.183 0 000-5.929L40.63 24.25a4.18 4.18 0 00-2.965-1.231zm-9.41 14.106L47.8 45.212v2.726c-5.17-.723-10.797-2.48-15.33-1.743-3.054-1.845-3.353-5.857-4.214-9.071zm21.49 8.735a4.407 4.407 0 110 8.814zm-13.667.572c3.97.088 8.237 1.138 11.722 1.766v4.325c-7.19 1.116-16.255 3.321-21.666-2.09 2.299-3.217 5.973-4.09 9.944-4.001zm11.722 6.288v2.726l-19.372 7.919c.862-3.214.988-7.056 4.042-8.9 4.533.736 10.16-1.022 15.33-1.745z" fill="#fff"/></svg>