<svg xmlns="http://www.w3.org/2000/svg" width="256" height="256"><path d="M128 19.144c-4.286 0-8.573 1.641-11.857 4.926l-92.07 92.074a16.727 16.727 0 000 23.71l92.07 92.075a16.732 16.732 0 0023.714 0l92.07-92.075a16.727 16.727 0 000-23.71l-92.07-92.074A16.714 16.714 0 00128 19.144zM90.37 75.556l78.158 32.345v10.902c-20.676-2.891-43.175-9.918-61.304-6.972-12.214-7.376-13.41-23.423-16.854-36.275zm85.942 34.931a17.623 17.623 0 110 35.248zm-54.66 2.287c15.878.354 32.94 4.553 46.876 7.064v17.298c-28.748 4.46-65.003 13.28-86.641-8.36 9.193-12.864 23.886-16.356 39.765-16.002zm46.876 25.15v10.901l-77.467 31.666c3.444-12.852 3.95-28.215 16.163-35.592 18.13 2.946 40.628-4.085 61.304-6.976z" fill="#fff"/></svg>