<svg version="1.2" baseProfile="tiny" xmlns="http://www.w3.org/2000/svg" viewBox="0 0 443.258 445.57"><path fill-rule="evenodd" fill="#C6C7C8" d="M222.215 49.863c33.771.194 51.831 20.619 51.96 74.837l-103.867.04c.193-54.411 18.136-74.683 51.907-74.877M221.746 187.08c-14.953 59.695-44.377 134.838-73.351 189.966l5.2 2.672c25.167-47.381 50.801-110.256 68.15-165.286 17.352 55.03 42.975 117.774 68.142 165.155l5.539-2.562c-28.975-55.129-58.727-130.25-73.68-189.945"/><path fill-rule="evenodd" fill="#C6C7C8" d="M221.746 259.06c-16.705 43.994-37.255 89.373-57.054 124.98l-5.451-2.205c22.54-40.863 45.817-94.187 62.505-143.567 16.688 49.381 39.666 102.856 62.207 143.72l-5.764 2.142c-19.8-35.61-39.738-81.076-56.443-125.07"/><path fill-rule="evenodd" fill="#C6C7C8" d="M221.746 296.928c-14.777 32.699-30.102 64.411-45.112 90.57l-5.898-1.732c17.441-30.586 35.477-68.72 51.01-106.938 15.533 38.218 33.547 76.43 50.988 107.016l-5.663 1.752c-15.011-26.159-30.547-57.969-45.325-90.668"/><path fill-rule="evenodd" fill="#C6C7C8" d="M221.746 330.183c-10.797 21.826-21.6 42.759-31.936 60.598l-6.066-1.601c12.633-21.798 25.901-48.012 38.002-75.063 12.102 27.052 25.444 53.227 38.077 75.025l-6.377 1.286c-10.335-17.838-20.904-38.419-31.7-60.245"/><path fill-rule="evenodd" fill="#C6C7C8" d="M221.746 362.212c-6.183 10.825-11.685 21.073-17.114 30.502l-6.56-.771c7.817-13.543 15.785-29.1 23.674-45.261 7.889 16.161 15.975 31.718 23.792 45.261l-6.677.771c-5.431-9.429-10.933-19.676-17.115-30.502"/><path fill-rule="evenodd" fill="#C6C7C8" d="M221.853 151.611c-7.077 56.231-42.981 152.229-80.036 222.45l-5.576-3.297c36.488-69.99 71.581-166.989 78.904-228.355h-7.208c-7.234 60.42-41.298 155.341-77.145 225.102l-5.396-3.545c35.233-69.366 68.191-162.097 75.287-221.557h-7.208c-6.997 58.436-38.979 148.924-73.481 217.802-5.032-3.757-11.546-8.67-18.177-14.679 30.723-58.635 61.963-132.396 70.584-203.123h-4.311v-10.293h107.524v10.293h-4.311c9.974 69.522 39.126 144.502 70.098 202.273-6.631 6.008-12.478 11.491-17.51 15.247-34.501-68.878-66.665-159.084-73.662-217.521h-7.207c7.095 59.46 40.352 151.792 75.585 221.158l-5.379 3.562c-35.848-69.76-70.227-164.299-77.462-224.72h-7.208c7.325 61.367 42.615 158.219 79.104 228.209l-5.693 3.062c-37.054-70.219-72.778-165.836-80.116-222.068M214.822 393.266c4.7.438 9.372.432 14.047-.012a1117.886 1117.886 0 01-7.006-14.086 819.633 819.633 0 01-7.041 14.098"/><path fill-rule="evenodd" fill="#0056A2" d="M91.509 334.919c-29.03-38.701-41.734-71.147-42.056-113.284-.582-76.13 49.319-139.794 116.296-162.785-5.64 95.819-25.296 193.192-74.24 276.069M351.375 334.535c29.397-38.003 41.265-71.147 41.583-113.284.576-76.13-48.764-139.793-114.987-162.785 5.576 95.819 25.012 193.192 73.404 276.069"/><path fill-rule="evenodd" fill="#C6C7C8" d="M221.344 445.538c-51.744 1.015-114.204-22.24-153.223-60.332l27.929-30.023c28.821 27.704 75.205 50.233 125.294 49.652 50.09.581 97.142-22.281 125.962-49.986l26.261 29.189c-39.019 38.093-100.479 62.515-152.223 61.5"/><path fill="#0056A2" d="M388.289 360.86l-22.378-19.353c-1.901-1.645-4.354-1.998-6.42.39-1.983 2.457-.908 4.73.831 6.235l22.297 19.283c2.428 2.101 4.774 1.513 6.279-.228 1.506-1.739 1.899-4.157-.609-6.327m9.992-39.18c-7.976-5.104-15.831-4.543-21.108-1.061-2.347 1.483-4.298 3.538-5.884 6.017-1.759 2.749-2.743 5.676-3.165 8.518-.327 2.396.641 4.159 2.128 5.11 1.938 1.24 4.241.618 5.452-1.273.434-.677.656-1.423.844-2.51.26-1.993.916-3.415 1.926-4.992 1.759-2.749 3.987-4.245 6.938-4.389 2.479-.002 5.328.806 7.819 2.273 1.294.955 2.485 1.972 3.381 3.053 3.032 3.402 3.308 7.834.885 11.619-1.413 2.208-4.051 3.252-5.586 5.254-.573 1.094-.844 2.509.271 4.239.181.115.516.584 1.191 1.017 4.416 2.827 9.236-2.918 11.371-6.252 6.027-9.418 3.495-20.249-6.463-26.623zm19.924-16.392l-2.377 5.267c-.991 2.194-3.561 3.206-5.755 2.216-2.341-1.057-2.857-3.814-1.867-6.009l2.245-4.974 7.754 3.5zm6.978-6.358l-26.868-12.128c-2.975-1.343-4.92-.284-6.008 1.866-.99 2.194-.581 4.669 2.345 5.989l9.997 4.512-.045.098-16.81 4.21c-1.278.362-2.27.737-3.19 2.258-1.145 2.536-.655 5.223 1.637 6.257 1.17.528 2.512.547 3.785.065l10.821-3.686c-.755 2.712-.84 9.013 5.563 12.255 6.777 3.059 13.232.983 16.644-6.575l4.183-9.265c1.319-2.926-.347-5.087-2.054-5.856zm-2.391-31.687l-17.81-5.049c-2.11-.598-4.512.223-5.343 3.156l-3.648 12.868c-.861 3.036.604 4.731 2.818 5.358 1.801.511 4.012-.03 4.902-3.17l2.51-8.854 6.846 1.941-2.335 8.235c-.715 2.522.781 4.503 2.788 5.072 2.008.569 4.24-.244 4.984-2.869l2.335-8.235 6.64 1.883-2.51 8.853c-.832 2.935.795 4.452 2.699 4.992 2.522.715 4.364-.486 5.021-2.803l3.735-13.177c.481-1.698.006-4.336-3.082-5.211l-10.55-2.99zm16.042-32.386l-29.244-3.71c-3.131-.397-4.655 1.836-4.891 3.694l-1.381 10.88c-.922 7.271 1.977 11.63 6.114 13.449 1.08.407 2.274.774 3.548.936 4.671.593 8.935-1.563 10.403-6.338 1.024 2.557 3.149 4.93 6.759 5.387 5.732.728 10.358-3.431 11.086-9.164l1.313-10.349c.344-2.707-1.106-4.455-3.707-4.785zm-26.991 5.312l7.749.983-.66 5.201c-.417 3.291-2.007 5.192-4.502 4.875-2.281-.289-3.771-1.719-3.287-5.54l.7-5.519zm15.339 1.946l7.112.902-.499 3.927c-.29 2.283-1.5 3.747-3.901 3.55-1.964-.249-3.595-1.427-3.197-4.558l.485-3.821zm11.586-23.49l-29.576-.746c-2.514-.063-4.633 1.221-4.713 4.376.027 3.158 2.302 4.232 4.601 4.291l29.47.744c3.209.081 4.649-1.862 4.707-4.163.058-2.3-1.174-4.419-4.489-4.502zm-2.404-29.208l-29.563 3.75c-1.752.222-3.853 1.945-3.481 4.864l1.75 13.799c.249 1.964 1.706 3.667 4.228 3.563 2.601-.33 4.051-2.078 3.721-4.679l-1.198-9.447 25.422-3.225c3.397-.431 4.436-2.45 4.252-4.746-.278-2.175-1.735-4.309-5.131-3.879zm-16.363-51.015l-22.947 19.329c-2.158 1.972-3.049 3.346-2.244 5.728.771 2.281 2.431 2.849 5.088 3.025l29.936 1.688c1.015-.004 2.115.076 3.027-.232 2.179-.736 3.219-3.177 2.482-5.356-.84-2.483-2.721-3.203-5.156-3.227l-20.932-.778 16.323-13.364c1.703-1.31 2.896-3.293 2.159-5.473-.753-2.23-3.11-3.693-5.392-2.922-.911.307-1.585.987-2.344 1.582zm-30.799-27.727l-11.535 7.383c-2.028 1.298-3.154 3.607-1.568 6.085 1.5 2.343 3.762 2.801 6.33 1.157l11.446-7.326 16.124 1.176c.489.068 2.147.277 4.085-.963 1.731-1.363 1.778-3.87.538-5.808-.808-1.262-1.921-2.01-4.19-2.082l-11.835-.428 4.538-10.972c.827-2.181.672-3.416-.193-4.767-1.24-1.938-3.537-2.945-5.499-1.943-1.893 1.211-2.34 2.895-2.527 3.396l-5.714 15.092zm-28.661-14.77c-2.306 1.995-2.22 4.466-.609 6.328 1.645 1.902 4.008 2.263 6.314.268l19.545-16.903 3.185 3.682c1.925 2.226 4.113 2.384 5.935.809 1.982-1.715 2.061-3.833.136-6.059l-12.004-13.88c-1.925-2.226-4.032-2.454-6.016-.739-1.82 1.575-1.979 3.763-.055 5.989l3.114 3.602-19.545 16.903zm7.315-34.881L347.424 82.42c-1.737 1.819-2.211 4.251.072 6.431 2.356 2.103 4.681 1.141 6.27-.522l20.358-21.32c2.217-2.321 1.746-4.695.082-6.283-1.664-1.589-4.059-2.101-6.35.298zm-35.405 4.539l22.379-5.942c3.994-1.009 6.57-1.773 7.662-3.161.96-1.219 2.167-3.877-1.448-6.724l-14.63-11.515c-2.396-1.886-4.575-1.626-5.998.181s-1.196 4.028 1.2 5.915l10.005 7.875-26.28 7.093c-1.668.39-2.768.749-3.661 1.884-1.82 2.312-1.801 4.71 1.898 7.622L338.67 80.67c2.313 1.82 4.575 1.626 6.064-.266 1.489-1.892 1.211-4.221-1.101-6.041l-11.182-8.8zm-20.265-37.085l5.141 2.637c2.143 1.099 3.025 3.716 1.927 5.858-1.173 2.285-3.952 2.663-6.095 1.564l-4.854-2.49 3.881-7.569zm-6.002-7.289l-13.455 26.229c-1.489 2.904-.528 4.899 1.564 6.093 2.143 1.099 4.634.814 6.099-2.042l5.006-9.759.095.049 3.366 16.999c.298 1.295.622 2.304 2.096 3.3 2.476 1.27 5.183.915 6.33-1.322.586-1.142.672-2.481.255-3.778l-3.141-10.991c2.67.889 8.959 1.289 12.517-4.944 3.395-6.617 1.644-13.167-5.735-16.952l-9.044-4.64c-2.857-1.463-5.098.093-5.953 1.758zm-32.257.775l-5.942 17.532c-.704 2.077-.005 4.518 2.883 5.496l12.667 4.293c2.989 1.013 4.756-.365 5.494-2.543.602-1.774.173-4.009-2.918-5.057l-8.715-2.954 2.283-6.739 8.107 2.748c2.482.842 4.537-.552 5.206-2.528.67-1.976-.029-4.247-2.613-5.122l-8.106-2.748 2.215-6.536 8.715 2.954c2.889.979 4.486-.57 5.122-2.444.841-2.483-.266-4.383-2.546-5.156l-12.971-4.396c-1.673-.567-4.33-.225-5.361 2.815l-3.52 10.385zM240.344 6.937l5.879 29.422c.688 2.84 1.463 4.283 3.938 4.726 2.369.424 3.668-.757 5.102-3l15.904-25.417c.485-.892 1.086-1.817 1.256-2.765.405-2.264-1.232-4.351-3.498-4.756-2.58-.461-4.117.84-5.312 2.963l-10.769 17.966L249 5.334c-.327-2.124-1.491-4.125-3.756-4.53-2.317-.415-4.734.947-5.158 3.316-.169.946.102 1.865.258 2.817zm-12.997-2.139l-.75 29.576c-.063 2.514 1.221 4.633 4.376 4.713 3.158-.027 4.232-2.301 4.291-4.601l.747-29.469c.081-3.209-1.862-4.649-4.162-4.708-2.301-.058-4.418 1.173-4.502 4.489zm-40.671 2.015l2.247 29.5c.199 2.614 1.782 4.372 4.297 4.287 2.827-.215 4.577-1.904 4.361-4.732l-1.397-18.351 17.58 18.781c1.115 1.256 2.395 2.554 4.582 2.388 2.721-.208 4.216-2.414 4.009-5.134l-2.239-29.394c-.19-2.507-1.781-4.371-4.822-4.14-2.934.224-3.986 2.611-3.819 4.798l1.382 18.138-.107.008-17.583-18.78c-1.435-1.232-2.698-2.316-4.672-2.166-2.614.199-4.01 2.291-3.819 4.797zm-32.229 8.664c-.82-2.882-2.957-3.942-5.375-3.254-2.521.717-3.781 2.744-2.961 5.625l5.064 17.805c2.766 9.726 10.94 13.631 20.335 11.07 9.314-2.649 14.284-10.403 11.518-20.129l-5.064-17.805c-.819-2.882-3.031-3.811-5.479-3.226-2.418.688-3.677 2.715-2.858 5.597l5.064 17.805c1.405 4.94-1.363 8.508-5.479 9.679-4.014 1.142-8.296-.421-9.701-5.361l-5.064-17.806zm-42.024 6.366c.892-1.131.795-2.372.154-3.484-.988-1.715-2.975-2.485-4.783-1.444-.557.32-1.191.933-1.819 1.665l-5.199 6.945c-.892 1.131-.794 2.372-.154 3.484 1.041 1.808 2.828 2.446 4.79 1.563.642-.494 1.277-1.106 1.719-1.731l5.292-6.998zm-5.816 28.6l9.238 16.041c1.095 1.901 3.388 2.988 6.03 1.467l11.591-6.675c2.735-1.575 2.867-3.812 1.719-5.805-.934-1.623-2.896-2.777-5.724-1.149l-7.975 4.592-3.551-6.166 7.418-4.272c2.271-1.308 2.582-3.771 1.541-5.579-1.042-1.808-3.208-2.783-5.572-1.421l-7.418 4.272-3.444-5.981 7.975-4.592c2.642-1.521 2.535-3.745 1.547-5.459-1.308-2.272-3.466-2.696-5.552-1.495l-11.869 6.835c-1.53.881-3.029 3.103-1.427 5.884l5.473 9.503zM70.822 65.606l19.529 22.509c1.858 2.142 4.127 2.227 5.935.8 1.738-1.508 2.855-3.894.541-6.561l-8.204-9.457 19.583 2.488c1.766.239 3.477.171 4.811-.986 1.98-1.718 2.272-4.238.239-6.582-.572-.495-1.451-.937-2.879-1.114l-17.798-1.982.921-14.611c.159-1.695-.255-2.825-.875-3.703-1.368-1.576-4.23-1.855-6.038-.428-1.09.946-1.629 2.122-1.682 3.938l-.559 18.051-6.837-7.88c-2.174-2.505-4.43-2.249-6.318-.751-1.818 1.578-2.332 4.006-.369 6.269zm-14.559 38.76c7.162 6.194 15.017 6.763 20.739 4.072 2.535-1.132 4.76-2.886 6.684-5.111 2.135-2.469 3.528-5.225 4.353-7.978.666-2.324-.04-4.208-1.375-5.362-1.74-1.505-4.109-1.219-5.579.48-.525.607-.853 1.313-1.194 2.362-.542 1.936-1.396 3.249-2.62 4.666-2.135 2.468-4.554 3.63-7.495 3.35-2.454-.354-5.158-1.561-7.414-3.37-1.144-1.131-2.177-2.308-2.909-3.506-2.513-3.8-2.151-8.227.789-11.625 1.715-1.983 4.474-2.638 6.281-4.4.724-1.001 1.194-2.362.338-4.235-.162-.14-.427-.652-1.034-1.177-3.966-3.43-9.559 1.565-12.148 4.56-7.314 8.458-6.359 19.54 2.584 27.274zM36.238 109l24.918 15.95c2.118 1.356 4.596 1.354 6.297-1.304 1.612-2.716.222-4.813-1.715-6.053L40.91 101.701c-2.704-1.731-4.942-.813-6.183 1.124-1.24 1.937-1.283 4.386 1.511 6.175zm-18.447 37.35l26.966 12.172c2.389 1.079 4.69.533 5.822-1.715 1.167-2.584.523-4.93-2.062-6.096l-16.774-7.571 24.911-6.423c1.637-.376 3.389-.877 4.292-2.876 1.123-2.487-.097-4.857-2.583-5.979l-26.868-12.127c-2.292-1.035-4.69-.533-5.945 2.247-1.211 2.682.38 4.75 2.379 5.652l16.58 7.483-.044.098-24.911 6.423c-1.77.669-3.327 1.257-4.141 3.062-1.08 2.387.087 4.616 2.378 5.65zM6.547 188.927l28.83 6.644c2.451.564 4.784-.271 5.493-3.347.604-3.1-1.409-4.607-3.651-5.123l-10.896-2.511 3.64-15.796 11.104 2.559c2.242.517 4.655-.19 5.316-3.058.661-2.867-.711-4.775-3.37-5.388l-28.83-6.643c-3.337-.769-5.032.872-5.573 3.218-.541 2.346.29 4.459 3.522 5.204l10.114 2.331-3.64 15.796-10.114-2.33c-3.128-.721-4.928.896-5.444 3.137s.266 4.563 3.499 5.307zm12.771 41.2c9.466.239 15.896-4.309 18.609-10.02 1.24-2.484 1.846-5.252 1.92-8.193.082-3.263-.591-6.276-1.702-8.927-.961-2.218-2.702-3.226-4.466-3.27-2.3-.058-3.949 1.667-4.006 3.913-.02.802.175 1.557.577 2.583.81 1.84.985 3.396.938 5.268-.082 3.263-1.214 5.696-3.664 7.347-2.12 1.284-4.976 2.068-7.867 2.103-1.602-.147-3.147-.4-4.474-.862-4.354-1.341-6.884-4.991-6.771-9.483.066-2.621 1.783-4.878 2.06-7.387-.076-1.233-.577-2.583-2.427-3.486-.214-.005-.743-.233-1.545-.253-5.242-.132-6.392 7.278-6.492 11.235-.283 11.178 7.491 19.134 19.31 19.432zm-.651 27.017l18.364-2.33c2.176-.276 4.064-1.972 3.68-4.997l-1.684-13.269c-.397-3.131-2.41-4.116-4.691-3.827-1.858.235-3.68 1.6-3.27 4.837l1.158 9.129-7.059.896-1.078-8.492c-.33-2.601-2.482-3.837-4.552-3.575s-3.805 1.885-3.462 4.591l1.078 8.492-6.847.869-1.158-9.129c-.384-3.025-2.475-3.784-4.439-3.535-2.601.33-3.825 2.157-3.522 4.545l1.724 13.587c.223 1.751 1.693 3.991 4.878 3.587l10.88-1.379zm22.986 17.257c2.934-.832 3.901-3.108 3.229-5.476-.686-2.419-2.674-3.746-5.608-2.914l-24.86 7.048-1.328-4.684c-.803-2.831-2.718-3.9-5.035-3.244-2.522.715-3.489 2.603-2.686 5.433l5.005 17.655c.803 2.831 2.616 3.93 5.138 3.215 2.316-.657 3.386-2.573 2.583-5.404l-1.299-4.581 24.861-7.048zm-5.042 62.963l26.532-13.567c2.524-1.291 3.15-3.474 2.198-5.571-1.047-2.048-3.096-3.704-6.24-2.097l-11.146 5.7 7.107-18.416c.655-1.657.999-3.335.195-4.907-1.194-2.334-3.57-3.222-6.333-1.809-.618.436-1.258 1.184-1.771 2.528l-6.188 16.805L27 311.634c-1.608-.561-2.804-.43-3.805-.038-1.858.95-2.814 3.663-1.862 5.76.658 1.286 1.67 2.091 3.421 2.577l17.391 4.867-9.289 4.749c-2.953 1.511-3.244 3.763-2.243 5.955 1.095 2.143 3.33 3.225 5.998 1.86zm22.847 29.194l23.192-18.196c2.483-1.948 1.965-4.603.81-6.075l-6.77-8.629c-4.524-5.767-9.662-6.768-13.864-5.103-1.049.483-2.149 1.074-3.159 1.867-3.704 2.906-5.167 7.454-2.803 11.854-2.539-1.068-5.72-1.224-8.583 1.022-4.546 3.566-4.839 9.78-1.272 14.326l6.44 8.208c1.684 2.147 3.947 2.344 6.009.726zm15.19-22.935l-6.146 4.821-3.236-4.125c-2.047-2.609-2.283-5.076-.305-6.629 1.81-1.419 3.875-1.476 6.252 1.556l3.435 4.377zm-12.164 9.544l-5.64 4.426-2.444-3.115c-1.42-1.81-1.611-3.699.216-5.27 1.558-1.223 3.541-1.555 5.49.929l2.378 3.03z"/></svg>