<svg version="1.2" viewBox="0 0 443.258 445.57" xmlns="http://www.w3.org/2000/svg"><g stroke-width=".882" fill="#fff"><path d="M47.866 35.785c-7.466 0-13.576 6.11-13.576 13.576V396.21c0 7.466 6.11 13.577 13.576 13.577H85.2V58.863a27.154 27.154 0 0112.914-23.079zm79.704 0l274.184 114.076a27.154 27.154 0 016.537 3.912V49.36c0-7.466-6.11-13.577-13.577-13.577zm280.72 160.303a27.154 27.154 0 01-5.768 3.58l-244.7 110.868v99.25h237.571c7.467 0 13.574-6.11 13.574-13.577h-.676z" fill-opacity=".409"/><path d="M112.348 58.863v350.922h18.327V293.037L391.32 174.931z"/></g></svg>