<?xml version="1.0" encoding="UTF-8" standalone="no"?>
<svg
   viewBox="0 0 600 200"
   version="1.1"
   id="svg4"
   sodipodi:docname="multisport.svg"
   inkscape:version="1.1 (c68e22c387, 2021-05-23)"
   xmlns:inkscape="http://www.inkscape.org/namespaces/inkscape"
   xmlns:sodipodi="http://sodipodi.sourceforge.net/DTD/sodipodi-0.dtd"
   xmlns="http://www.w3.org/2000/svg"
   xmlns:svg="http://www.w3.org/2000/svg">
  <defs
     id="defs8" />
  <sodipodi:namedview
     id="namedview6"
     pagecolor="#505050"
     bordercolor="#ffffff"
     borderopacity="1"
     inkscape:pageshadow="0"
     inkscape:pageopacity="0"
     inkscape:pagecheckerboard="1"
     showgrid="false"
     inkscape:current-layer="svg4" />
  <path
     style="fill:#ffffff;stroke:none;stroke-width:0.472995"
     d="m 32.256404,36.356893 c 4.347115,-0.519949 9.014936,-0.0927 13.243784,0.989821 30.323257,7.759813 35.388498,48.837917 9.93337,65.403836 -4.382275,2.85226 -9.481611,4.5943 -14.662988,5.23145 C 10.222499,111.73245 -11.078364,76.620979 6.6062958,51.357635 9.39676,47.371715 12.989523,44.022945 17.120347,41.456229 21.678425,38.622081 26.952498,36.991913 32.256404,36.356893 M 31.783336,48.739777 C 7.3755647,53.131642 6.0288114,88.846174 29.891062,95.270954 c 3.282711,0.884339 7.532869,0.93122 10.878442,0.328164 3.154855,-0.567895 6.350197,-1.851786 8.988299,-3.668411 C 70.566419,77.60121 56.456409,44.298901 31.783336,48.739777 m 2.365342,7.060866 c 11.883179,-2.725471 9.932305,13.140433 9.932305,20.152286 0,2.536883 0.117201,5.106795 -0.616907,7.568029 -0.787382,2.639167 -2.816035,4.596435 -5.531917,5.16433 -11.681805,2.437794 -9.459236,-13.456878 -9.459236,-20.300387 0,-2.433532 -0.357998,-5.215473 0.380372,-7.566963 0.751156,-2.398372 2.823494,-4.450466 5.295383,-5.017295 M 320.3103,64.283909 c 13.77865,-1.17095 9.97279,18.851349 -1.89228,19.664302 -6.70606,0.459217 -10.50872,-5.691737 -8.46408,-11.778763 1.51296,-4.504805 5.65977,-7.487053 10.35636,-7.884473 m 49.66472,29.169353 c 0.21096,-2.996099 0.34308,-6.13071 -2.41542,-8.097566 -4.5389,-3.240093 -13.39721,0.598793 -12.59385,6.678361 0.43685,3.305086 4.31515,4.997051 6.96817,6.252174 6.65066,3.148463 14.7397,4.701913 19.54391,10.782553 6.61656,8.37459 2.89381,20.60404 -3.59916,27.89292 -10.38833,11.66369 -36.63297,14.98476 -46.16572,0.47946 -2.54541,-3.87298 -2.89595,-8.28509 -2.88849,-12.77072 0.003,-1.53747 -0.34308,-4.00616 1.52682,-4.57938 3.48409,-1.06867 8.54933,-0.15023 12.18897,-0.15023 1.23381,0 3.40631,-0.38144 4.42702,0.48585 1.29348,1.10063 0.65846,5.29751 1.78999,7.07472 3.73128,5.85368 12.6354,4.59856 16.01188,-0.93975 2.35895,-3.86765 0.3793,-7.3837 -3.30935,-9.33351 -8.03257,-4.24803 -19.32868,-6.00712 -23.93151,-14.78871 -4.18197,-7.978238 -0.3271,-19.186975 5.97728,-24.931985 8.81676,-8.031508 25.18557,-10.950894 35.9287,-5.18564 5.73755,3.079207 9.38039,8.939288 9.45817,15.455698 0.017,1.401093 0.50077,4.193688 -0.75649,5.188836 -1.15816,0.918435 -3.54055,0.486919 -4.91714,0.486919 h -13.24378 m -255.4175,-21.28488 8.98723,47.772452 h 0.47307 l 5.52978,-10.40644 13.72964,-24.595297 7.41247,-12.284861 5.9645,-0.485854 17.02726,0.473068 -12.77071,71.894674 h -17.97447 l 8.04216,-46.826312 h -0.47306 c -3.25395,11.272662 -11.52838,23.342302 -17.30003,33.583592 -2.12561,3.77176 -3.62259,9.48268 -6.80089,12.48517 -1.71221,1.61632 -11.01695,1.48953 -13.11699,0.47307 -2.36748,-1.14751 -2.53795,-9.12788 -2.94816,-11.5401 -1.95833,-11.51453 -5.94638,-23.80471 -6.18718,-35.4748 h -0.47307 l -6.24258,35.00173 -2.623185,11.8118 -4.851082,0.48585 H 77.191508 L 89.962223,72.169448 h 24.595297 m 149.93923,0 -2.80005,17.027265 -6.56649,37.366007 -2.26199,12.77178 -1.42027,4.71684 -4.9246,0.48585 h -11.82564 l 9.26425,-53.448203 2.36108,-13.243784 1.42986,-5.188836 4.91927,-0.486919 h 11.82458 m 26.48757,0 -2.83734,17.974467 12.29764,0.472003 -2.36534,12.770712 c -2.72334,0 -9.93976,-1.27643 -11.94711,0.75862 -1.27643,1.29348 -1.19226,4.17024 -1.49698,5.86328 -0.8609,4.77223 -5.00238,15.81902 -1.08678,19.73462 2.50385,2.50385 7.52221,1.55026 10.74739,1.55026 -0.2344,2.97159 -0.39529,10.75378 -2.64876,12.8389 -1.36486,1.26258 -4.57512,1.10383 -6.33848,1.27111 -6.21168,0.59133 -15.58035,0.73837 -19.40752,-5.12491 -3.46597,-5.3103 -1.95407,-11.70951 -0.96958,-17.49927 1.93277,-11.36216 4.08501,-22.6881 5.99114,-34.055595 0.66165,-3.942237 1.32757,-7.89939 2.08832,-11.824579 0.23973,-1.238075 0.22907,-3.386061 1.29667,-4.243764 1.14006,-0.916304 3.49261,-0.485854 4.85215,-0.485854 h 11.82458 m 300.35154,0.473068 -3.31041,17.500334 h 12.29764 c -0.35906,2.819232 -0.41553,10.93491 -2.71481,12.75793 -2.21405,1.75696 -9.17582,0.48585 -11.94817,0.48585 -0.5061,6.33741 -2.2556,12.62795 -3.18363,18.92061 -0.38357,2.62531 -0.92696,5.79189 1.40003,7.73104 2.54541,2.12668 7.20897,1.25513 10.29776,1.25513 l -1.89227,13.24378 c -7.44018,0.93974 -19.5535,3.26779 -25.38587,-2.92471 -5.02795,-5.34014 -2.75744,-13.86602 -1.69304,-20.25138 2.73826,-16.41036 5.55323,-32.843091 8.63244,-49.192718 l 17.50033,0.474134 M 407.34103,137.9153 h -0.47307 l -4.25655,24.59636 h -17.5014 l 9.34204,-53.44927 2.38984,-13.716854 1.39044,-4.715767 4.85215,-0.486919 h 11.82458 l -0.94614,7.096025 c 4.14787,-4.138282 8.75496,-7.202572 14.66299,-8.041097 16.51264,-2.342967 26.54404,10.914672 24.98845,26.487572 -1.10169,11.00842 -8.02724,21.76434 -17.89349,26.8381 -8.81676,4.53357 -23.12069,5.91975 -28.37984,-4.60815 m 83.24725,-49.056341 c 22.53361,-2.695637 34.71832,17.506731 26.07203,37.231761 -4.85854,11.09473 -16.56059,18.63506 -28.43737,19.78576 -7.12799,0.68936 -14.85691,-0.28661 -20.81182,-4.54955 -10.75058,-7.70121 -10.76976,-22.79678 -5.29218,-33.68268 5.5106,-10.950895 16.58722,-17.363955 28.46934,-18.785291 m 74.73308,0.337754 -2.36534,16.082197 c -3.24968,0 -6.37151,0.13531 -9.45924,1.28282 -13.82127,5.1313 -13.26296,25.8696 -15.60912,37.97546 h -17.50034 c 3.24436,-13.166 4.6348,-26.88605 7.18873,-40.20442 0.57748,-3.00889 0.52101,-11.796876 3.02273,-13.703001 1.18693,-0.90778 3.52351,-0.486919 4.92354,-0.486919 h 11.82564 l -0.94614,7.568028 c 5.35399,-5.308168 11.28119,-8.450237 18.91954,-8.5131 M 197.3317,90.14285 a 811.42521,811.42521 0 0 0 -2.95455,16.55526 c -0.97064,5.8132 -3.98166,14.10042 -1.77827,19.86461 3.42122,8.94994 14.49891,2.94176 17.54509,-2.83734 3.5299,-6.69541 3.81011,-16.25374 5.04499,-23.64916 0.39955,-2.397306 0.3889,-7.300596 2.00309,-9.174756 1.01326,-1.176278 3.36049,-0.758614 4.73494,-0.758614 h 12.29871 c -1.42559,18.02561 -6.0167,36.63936 -9.46136,54.39434 H 207.264 l 1.41921,-6.62189 c -3.39885,2.66047 -6.22874,5.22186 -10.40538,6.68582 -2.70416,0.94827 -5.65764,1.34569 -8.51416,1.35527 -2.22577,0.007 -4.45579,-0.16621 -6.62189,-0.71599 -15.55479,-3.95289 -8.63563,-24.39499 -6.81794,-35.23187 a 368.06638,368.06638 0 0 1 1.61525,-8.98617 c 0.69895,-3.614075 1.21037,-7.262242 1.89121,-10.878445 h 17.5014 m 128.18128,0.472003 -4.92992,27.433702 -4.52931,26.48757 h -17.5014 c 1.43412,-18.01815 6.11047,-36.61805 9.4603,-54.39434 l 17.50033,0.473068 m -174.53453,6.621892 0.47307,0.473068 -0.47307,-0.473068 m 394.9503,0.473068 0.47307,0.473069 -0.47307,-0.473069 m -123.45166,6.393882 c -15.36727,3.28378 -16.85253,30.5534 1.4192,26.5792 15.29588,-3.32746 16.86212,-30.48521 -1.4192,-26.5792 m 65.27278,0.005 c -14.48293,3.32426 -16.22284,30.63011 1.4192,26.86687 6.23406,-1.32864 11.12457,-6.22554 12.52992,-12.45427 2.09045,-9.30368 -4.3567,-16.61386 -13.94912,-14.4126 z"
     id="path2" />
</svg>
