<svg viewBox="0 0 459 162" xmlns="http://www.w3.org/2000/svg" fill-rule="evenodd" clip-rule="evenodd" stroke-linejoin="round" stroke-miterlimit="1.414"><path fill="none" d="M0 0h458.236v161.71H0z"/><path d="M278.164 55.215c0 3.63-1.286 4.831-5.56 5.298v2.224a323.15 323.15 0 0110.364-1.313c3.34-.367 6.738-.679 9.904-.911v-2.224c-4.043.444-5.332-.471-5.332-4.101v-7.673l3.568-3.788 8.205 9.936c.641.807 1.406 1.776 1.406 2.888 0 1.583-2.402 2.139-4.159 2.332v2.228c3.279-.478 6.561-.896 9.781-1.251a281.87 281.87 0 019.781-.899v-2.225c-1.347-.027-2.402-.44-3.803-1.865-5.626-5.649-10.426-12.271-15.581-18.384 2.691-3.518 5.271-7.488 8.256-10.805 2.224-2.413 3.575-3.027 6.386-3.571v-2.225a165.158 165.158 0 01-15.113 1.657v2.228c2.228-.189 4.158-.108 4.158 1.826 0 1.642-1.347 3.372-1.992 4.26-3.282 4.518-7.028 9.032-10.893 13.673V28.413c0-3.63 1.289-4.827 5.093-5.244v-2.228c-2.927.44-6.325.872-9.665 1.235-3.398.375-6.796.688-10.364.962v2.228c4.274-.471 5.56.444 5.56 4.074zm-35.668-23.852c0-1.989.818-2.201 2.753-2.41 5.854-.641 8.314 1.549 8.314 7.407 0 7.259-4.862 8.379-11.067 9.062zm-9.024 28.756c0 3.63-1.29 4.827-5.565 5.298v2.224c3.572-.51 6.97-.938 9.781-1.247a312.48 312.48 0 0110.368-.962v-2.228c-4.274.471-5.56-.444-5.56-4.073V48.233l1.869-.204c1.289-.143 6.387 6.738 6.796 7.279l6.796 8.92c4.039-.444 8.082-.827 12.067-1.209v-1.992c-1.876-.495-2.695.181-4.217-1.939l-6.68-8.46c-1.695-2.159-3.398-3.615-5.093-5.476 5.213-1.568 9.603-5.271 9.603-10.839 0-7.966-7.557-9.36-14.291-8.623-3.692.406-7.379.985-11.071 1.39-3.398.375-6.796.688-10.368.962v2.228c4.275-.471 5.565.444 5.565 4.074zm-28.587-5.008l-5.387-13.407-5.742 14.631zm-23.837 17.67v-2.224c2.398-.383 4.449-1.309 6.148-5.538l13.998-34.923 2.988-.328 13.415 32.328c1.29 3.02 2.873 4.02 6.094 3.781v2.228c-2.873.139-6.855.575-10.253.946-4.452.49-8.375.98-10.132 1.289v-2.228c3.162-.343 5.097-1.143 5.097-3.016 0-.529-.239-1.44-.645-2.506l-1.819-4.784-13.353 1.467-1.583 4.333c-.235.73-.587 2.174-.587 2.877 0 2.46 1.877 2.842 4.924 2.506v2.224c-1.116.008-3.692.232-7.148.61-3.456.379-6.035.722-7.144.958m-32.397 3.556c1.757-.309 5.332-.761 10.02-1.274 4.449-.49 7.963-.819 10.778-1.008v-2.228c-4.221.29-6.21.27-6.21-4.004V56.752l5.623-.618c6.912-.757 15.11-4.699 15.11-12.611 0-7.206-5.858-10.017-16.987-8.797-4.568.502-7.379.985-10.19 1.294-2.696.297-5.449.536-8.144.718v2.228c4.278-.471 5.564.444 5.564 4.074v25.775c0 3.63-1.286 4.827-5.564 5.294zm14.588-36.398c0-1.112.583-2.054 2.754-2.29 5.564-.614 7.904 1.943 7.904 7.098 0 5.448-2.927 8.344-7.966 8.9l-2.692.294zm229.9 98.911c3.452.178 6.572.383 9.754.645 3.178.263 6.306.576 9.75.973v-2.05c-4.255-.351-5.44-1.421-5.44-4.761V107.8c0-1.131.54-1.413 2.691-1.235 4.634.386 8.352 2.475 8.893 8.279l2.209.185-.325-10.318a986.348 986.348 0 01-35.556-2.942l-.324 10.26 2.212.185c.537-5.723 4.252-7.19 8.885-6.808 2.155.178 2.696.549 2.696 1.68v25.856c0 3.341-1.186 4.213-5.445 3.862zm-52.632-4.359c2.371.089 4.472.208 6.576.382 2.101.174 4.202.402 6.569.707v-2.047c-4.468-.371-5.117-2.796-5.117-6.46v-19.879l25.05 30.845 2.911.24v-29.146c0-3.661.649-5.978 5.117-5.607v-2.051a138.776 138.776 0 01-6.573-.382c-2.1-.174-4.201-.402-6.572-.703v2.047c4.472.371 5.117 2.796 5.117 6.456v16.755l-21.601-26.625a102.888 102.888 0 01-5.766-.316c-1.938-.159-3.88-.375-5.819-.641v2.042c4.147.402 5.229 4.317 5.229 3.831v22.895c0 3.664-.649 5.981-5.121 5.61zm-20.581-15.55l-10.233-.85 5.279-12.434zm-21.922 12.028c1.02-.023 3.395.12 6.573.382 3.177.267 5.545.514 6.572.707v-2.047c-2.804-.231-4.526-.911-4.526-3.177 0-.645.321-1.912.541-2.537l1.452-3.707 12.279 1.019 1.672 4.715c.378 1.058.591 1.934.591 2.421 0 1.722-1.776 2.116-4.688 1.873v2.05c1.618.023 5.228.27 9.322.61 3.127.259 6.788.56 9.429.942v-2.05c-2.965-.351-4.417-1.548-5.599-4.556l-12.341-32.109-2.749-.223-12.875 29.64c-1.563 3.584-3.444 4.074-5.653 4.001zm-27.316-34.154c0-1.831.757-1.877 2.533-1.73 5.387.448 7.65 2.896 7.65 8.286 0 6.677-4.472 6.847-10.183 6.376zm-8.294 24.848c0 3.34-1.189 4.213-5.12 3.889v2.046c3.286.162 6.41.367 8.997.583 3.124.259 6.248.572 9.538.95v-2.046c-3.935-.325-5.121-1.394-5.121-4.735v-10.02l1.726.143c1.182.1 5.87 7.329 6.248 7.9l6.248 9.407c3.719.305 7.437.668 11.098 1.027v-1.834c-1.722-.788-2.479-.313-3.877-2.529l-6.144-8.967c-1.56-2.286-3.123-3.923-4.687-5.939 4.799-.517 8.839-3.147 8.839-8.263 0-7.325-6.951-9.947-13.149-10.465-3.394-.278-6.788-.398-10.179-.679a298.24 298.24 0 01-9.537-.95v2.046c3.931.325 5.12 1.394 5.12 4.734zm-45.847-9.669c0 10.665 8.19 13.716 16.484 14.403 12.604 1.043 14.925-7.383 14.925-14.604V98.487c0-3.665.645-5.978 5.17-5.603v-2.047a152.944 152.944 0 01-6.626-.39c-2.1-.174-4.201-.402-6.572-.707v2.051c4.472.367 5.116 2.792 5.116 6.456v13.199c0 6.788-1.452 12.271-10.124 11.553-2.912-.243-9.754-1.294-9.754-9.534V94.876c0-3.34 1.185-4.213 5.12-3.885v-2.05a280.927 280.927 0 01-9.322-.606 310.34 310.34 0 01-9.534-.954v2.047c3.931.324 5.117 1.394 5.117 4.734zm-21.335-3.383l-4.954-13.287-5.279 12.438zm-21.925 12.029v-2.047c2.209.077 4.093-.413 5.657-4.004l12.874-29.641 2.749.228 12.338 32.108c1.181 3.008 2.637 4.205 5.603 4.557v2.046c-2.642-.378-6.306-.683-9.43-.942-4.093-.336-7.704-.583-9.318-.61v-2.047c2.908.244 4.684-.15 4.684-1.872 0-.487-.216-1.367-.591-2.422l-1.668-4.714-12.287-1.02-1.452 3.703c-.216.63-.54 1.896-.54 2.541 0 2.263 1.722 2.946 4.525 3.178v2.047c-1.023-.193-3.394-.444-6.572-.707-3.178-.263-5.549-.405-6.572-.382m-35.024-32.205l-.1 3.167 2.205.185c.143-1.518.51-2.734 1.058-3.699zm8.249 29.988c3.448.178 6.572.383 9.75.645 3.178.267 6.302.579 9.75.969v-2.046c-4.255-.355-5.441-1.421-5.441-4.761V87.373c0-1.135.541-1.413 2.695-1.235 4.634.386 8.349 2.471 8.889 8.279l2.209.185-.316-10.106-22.096 2.433v25.586c0 3.34-1.185 4.213-5.44 3.858zM130.865 89.25l2.765-.305c.05.641.108 1.282.166 1.919l-2.475-.205a28.798 28.798 0 00-.456-1.409m-21.149 14.596a86.84 86.84 0 01.162 5.294c0 2.047-.054 4.144-.162 6.074l2.587.213.699-2.58c2.209 2.066 4.363 3.97 9.375 4.387 4.364.359 13.415-.83 13.415-10.526 0-6.951-5.765-10.338-9.7-12.388l-5.279-2.753c-3.069-1.603-3.93-3.29-3.93-5.337 0-1.614 1.131-4.807 5.332-4.46.742.062 1.421.189 2.051.371l-2.487-2.989c-7.406-.459-11.361 3.835-11.361 9.345 0 5.923 2.638 8.731 8.778 12.04l3.556 1.911c4.205 2.236 5.711 3.599 5.711 6.885 0 2.8-1.992 5.654-6.626 5.267-6.464-.532-8.403-6.568-9.534-10.541zm-35.881 8.557c4.255.247 9.592.634 16.002 1.163 6.41.532 12.77 1.112 15.84 1.475l.32-10.747-2.209-.185c-.59 3.993-1.992 8.024-9.642 7.391-4.039-.336-6.572-1.027-6.572-5.391V95.923c5.441.451 6.68 2.011 7.487 6.711l2.263.185c-.108-1.626-.162-3.568-.162-7.016 0-3.394.054-5.758.162-7.688l-2.263-.19c-.915 5.959-4.039 5.7-7.487 5.414V81.38c0-1.293.537-1.625 1.614-1.537l3.29.271c5.062.421 7.812 1.78 9.156 7.657l2.046.166v-9.48c-3.877-.216-8.889-.575-14.92-1.073-6.032-.502-11.044-.97-14.925-1.398v2.046c3.935.325 5.12 1.394 5.12 4.735v23.701c0 3.344-1.185 4.213-5.12 3.889zM45.766 78.187c0-1.834.757-1.877 2.537-1.73 5.383.444 7.65 2.896 7.65 8.283 0 6.68-4.472 6.846-10.187 6.375zm-8.294 24.848c0 3.34-1.186 4.209-5.117 3.885v2.047c3.286.166 6.41.37 8.997.586 3.124.259 6.248.568 9.534.947v-2.043c-3.935-.328-5.12-1.394-5.12-4.734V93.702l1.726.143c1.186.097 5.873 7.325 6.252 7.897l6.248 9.406c3.714.309 7.433.672 11.097 1.027v-1.83c-1.726-.792-2.479-.313-3.88-2.529l-6.14-8.97c-1.564-2.282-3.124-3.92-4.688-5.935 4.796-.522 8.835-3.148 8.835-8.264 0-7.329-6.95-9.951-13.144-10.464-3.394-.282-6.789-.402-10.183-.684a296.057 296.057 0 01-9.534-.95V74.6c3.931.324 5.117 1.39 5.117 4.73zM27.15 120.868l425.413 37.668-24.702-33.232 24.598-28.864-214.385-18.987L348.833 65.27l-24.501-28.262 24.937-33.699-218.593 24.049-24.034 33.599 4.363 5.244-83.963-7.433L3.348 87.717zm80.789-56.27l-2.977-3.579L129.938 26.1 352.15 1.653l-26.119 35.29 25.466 29.37-99.961 10.997 203.603 18.029-25.582 30.023 25.84 34.761-428.973-37.985L1.676 87.663l24.783-30.282zm-3.066-1.606l-1.587-1.911 25.915-36.24L355.026 0l-27.288 36.877 26.427 30.482-89.168 9.812 192.825 17.072-26.566 31.177 26.98 36.29-432.538-38.302L0 87.609l25.876-31.614z" fill="#fff"/></svg>