<svg viewBox="0 0 356 71" xmlns="http://www.w3.org/2000/svg" fill-rule="evenodd" clip-rule="evenodd" stroke-linejoin="round" stroke-miterlimit="1.414"><path d="M323.989 35.543l28.779 34.093-323.648.219L2.558 35.727 29.245 1.595l323.707-.222-28.963 34.17z" fill="#fff"/><path d="M203.128 48.577c0 3.532-1.253 4.557-5.412 4.557v2.165c3.475-.112 6.781-.172 10.081-.172 3.25 0 6.553.06 9.628.172v-2.165c-3.931 0-5.181-1.025-5.181-4.557v-7.462l3.472-3.306 7.978 10.54c.625.857 1.369 1.878 1.369 2.963 0 1.537-2.338 1.822-4.044 1.822v2.165c3.187-.112 6.378-.172 9.512-.172 3.191 0 6.382.06 9.513.172v-2.165c-1.31-.169-2.338-.685-3.703-2.219-5.469-6.1-10.141-13.047-15.153-19.541 2.618-3.134 5.128-6.725 8.034-9.628 2.162-2.109 3.472-2.565 6.209-2.794V16.79a160.962 160.962 0 01-14.7 0v2.162c2.166.06 4.047.344 4.047 2.222 0 1.597-1.312 3.135-1.937 3.932-3.194 4.046-6.838 8.034-10.597 12.134V23.512c0-3.535 1.25-4.56 4.956-4.56V16.79c-2.85.112-6.153.169-9.403.169-3.3 0-6.606-.057-10.081-.169v2.162c4.159 0 5.412 1.025 5.412 4.56v25.065zm-34.697-27.003c0-1.937.8-2.05 2.682-2.05 5.693 0 8.087 2.391 8.087 8.088 0 7.065-4.728 7.634-10.769 7.634V21.574zm-8.772 27.003c0 3.532-1.253 4.557-5.412 4.557v2.165c3.478-.112 6.778-.172 9.512-.172 3.307 0 6.613.06 10.088.172v-2.165c-4.159 0-5.416-1.025-5.416-4.557V37.981h1.822c1.256 0 6.213 7.234 6.613 7.806l6.606 9.4c3.931 0 7.866.056 11.737.112v-1.937c-1.821-.681-2.621-.113-4.103-2.335l-6.493-8.946c-1.654-2.279-3.304-3.872-4.957-5.866 5.069-.969 9.344-4.103 9.344-9.513 0-7.75-7.35-9.912-13.903-9.912-3.588 0-7.178.169-10.766.169-3.306 0-6.606-.057-10.084-.169v2.162c4.159 0 5.412 1.025 5.412 4.56v25.065zm-27.803-7.918l-5.237-13.616-5.588 13.616h10.825zm-23.184 14.64v-2.165c2.334-.113 4.328-.797 5.981-4.728l13.616-32.472h2.906l13.044 32.872c1.256 3.075 2.794 4.215 5.928 4.328v2.165c-2.794-.172-6.666-.172-9.972-.172-4.328 0-8.147.06-9.856.172v-2.165c3.078 0 4.959-.569 4.959-2.391 0-.516-.228-1.425-.628-2.506l-1.766-4.844h-12.99l-1.538 4.044c-.225.684-.572 2.053-.572 2.734 0 2.394 1.825 2.963 4.791 2.963v2.165c-1.084-.112-3.594-.172-6.953-.172-3.359 0-5.869.06-6.95.172m-31.506 0c1.709-.112 5.187-.172 9.743-.172 4.329 0 7.747.06 10.482.172v-2.165c-4.1-.169-6.038-.397-6.038-4.557V37.809h5.469c6.722 0 14.7-2.963 14.7-10.65 0-7.01-5.7-10.369-16.525-10.369-4.441 0-7.175.169-9.909.169-2.622 0-5.3-.057-7.922-.169v2.162c4.159 0 5.415 1.025 5.415 4.56v25.065c0 3.532-1.256 4.557-5.415 4.557v2.165zm14.187-33.84c0-1.082.569-1.935 2.678-1.935 5.41 0 7.691 2.735 7.691 7.747 0 5.297-2.847 7.803-7.75 7.803h-2.619V21.459zm207.285 13.828h-55.613v-.953h55.613v.953zm-53.791-7.613c0 1.257-.447 1.622-1.928 1.622v.769a104.616 104.616 0 016.959 0v-.769c-1.472 0-1.912-.369-1.912-1.622v-3.768h.647c.218 0 .759.625 1.265 1.284v-2.394c-.559.119-1.212.138-1.912.138v-4.86c0-.69.281-.731.95-.731.359 0 .678.028.962.081v-1.05c-1.122.013-2.25.057-3.372.057-1.175 0-2.35-.019-3.587-.06v.769c1.481 0 1.928.366 1.928 1.622v8.912zm27.162-1.943c.041.668.063 1.315.063 1.984 0 .772-.022 1.559-.063 2.291h.975l.263-.994c.828.709 1.641 1.356 3.522 1.356 1.644 0 5.047-.728 5.047-4.375 0-2.612-2.169-3.706-3.647-4.356l-1.985-.869c-1.156-.509-1.481-1.116-1.481-1.884 0-.61.425-1.844 2.006-1.844 2.288 0 3.041 1.784 3.425 3.059h.929c-.122-1.256-.182-2.531-.122-3.787h-.95l-.282.89c-.771-.85-2.046-1.134-3.018-1.134-2.878 0-4.419 1.763-4.419 3.869 0 2.228.994 3.2 3.303 4.253l1.334.609c1.582.71 2.15 1.175 2.15 2.41 0 1.053-.746 2.187-2.49 2.187-2.431 0-3.163-2.206-3.585-3.665h-.975zm-13.49 4.334c1.6-.041 3.606-.059 6.015-.059 2.413 0 4.804.018 5.957.059l.122-4.05h-.832c-.222 1.519-.75 3.078-3.625 3.078-1.518 0-2.472-.181-2.472-1.822v-3.828c2.044 0 2.513.544 2.816 2.288h.85c-.041-.61-.059-1.338-.059-2.635 0-1.275.018-2.165.059-2.897h-.85c-.344 2.272-1.519 2.272-2.816 2.272v-4.5c0-.487.2-.628.607-.628h1.237c1.903 0 2.935.425 3.444 2.594h.769v-3.566c-1.457.041-3.341.06-5.61.06-2.268 0-4.156-.019-5.612-.06v.769c1.478 0 1.925.366 1.925 1.622v8.912c0 1.257-.447 1.622-1.925 1.622v.769zm37.253-2.681a1.67 1.67 0 00-.547 1.243c0 .494.209.938.547 1.244v-2.487zm0-11.003v3.859h-.284c-.204-2.166-1.6-2.834-3.344-2.834-.806 0-1.013.118-1.013.546v9.722c0 1.257.447 1.622 2.047 1.622v.769a113.869 113.869 0 00-7.331 0v-.769c1.597 0 2.044-.365 2.044-1.622v-9.722c0-.428-.2-.546-1.013-.546-1.74 0-3.137.668-3.344 2.834h-.828l.122-3.869a381.095 381.095 0 0012.944.01m-45.894 8.809v-2.394c1.153-.24 1.916-.884 1.916-2.575 0-1.669-.578-2.54-1.916-2.797v-1.05c.153-.003.306-.003.456-.003 2.332 0 4.944.769 4.944 3.525 0 1.925-1.522 3.038-3.322 3.385.588.706 1.175 1.275 1.76 2.084l2.312 3.181c.528.791.81.588 1.459.831v.688c-1.378-.019-2.778-.041-4.175-.041l-2.35-3.34a32.252 32.252 0 00-1.084-1.494m0 4.875h.013v-.772h-.013v.772zm45.894-9.825v-3.859l.425-.01.122 3.869h-.547zm0 9.631v-2.487a1.67 1.67 0 011.134-.438c.932 0 1.682.75 1.682 1.681 0 .932-.75 1.682-1.682 1.682a1.67 1.67 0 01-1.134-.438m49.522-24.95L30.866 4.95 6.3 35.737l24.444 30.575 314.403-.219-25.369-30.559 25.516-30.613zm-23.469 30.616L348.5 67.665l-318.509.222L4.284 35.734 30.109 3.375l318.547-.029-26.831 32.191zm4.347.003l29.625 35.691H28.381L.003 35.731 28.5 0l327.297.002-29.625 35.538z" fill="#231f20"/></svg>