<svg viewBox="0 0 214 163" xmlns="http://www.w3.org/2000/svg" fill-rule="evenodd" clip-rule="evenodd" stroke-linejoin="round" stroke-miterlimit="1.414"><path fill="none" d="M0 0h214v163H0z"/><path d="M140.906 2.482c-1.593-.047-3.15.275-4.638.825-2.87 1.059-5.458 2.963-7.563 4.66l-.002.002c-3.606 2.912-7.153 5.772-12.226 2.498l-.387-.27c-2.664-1.853-5.473-3.34-8.274-4.523a47.673 47.673 0 00-3.252-1.248l-.003-.002c-9.138-3.157-14.454 4.6-18.452 10.435-2.212 3.23-3.949 5.765-5.199 4.928-10.61-7.083-15.678-4.178-19.021.83h-.004c-1.137 1.704-2.045 3.65-2.912 5.502-1.793 3.827-3.384 7.229-6.256 6.467-7.693-2.04-14.728-3.659-19.938-1.629-5.32 2.071-8.567 7.773-8.373 20.32.04 2.7-.847 4.366-2.232 5.524-1.46 1.219-3.55 1.964-5.719 2.738-2.084.743-4.225 1.509-6.23 2.672-2.053 1.19-3.927 2.781-5.383 5.146-2.273 3.694-2.594 6.997-1.95 10.075.61 2.92 2.083 5.572 3.553 8.168v.005l.114.204c1.11 1.963 2.204 3.893 2.67 5.76.409 1.644.332 3.29-.67 4.962l-.21.315c-1.536 2.302-2.836 4.692-3.788 7.082-.188.465-.36.932-.518 1.396-.16.47-.307.937-.436 1.4l-.002.005-.001.005h.001c-.643 2.31-.91 4.592-.709 6.776.041.433.101.857.176 1.275.08.437.176.859.287 1.258l.004.016h.004c.618 2.188 1.763 4.193 3.54 5.931a16.349 16.349 0 002.34 1.887l.005.004.004.002v.002c1.316.878 2.87 1.655 4.685 2.314v.002c.36.13.72.255 1.079.37.362.113.737.225 1.132.335l.002.004h.008v-.002c2.73.757 4.853 1.44 6.54 2.184 1.632.717 2.86 1.494 3.857 2.46 1.007.979 1.85 2.225 2.7 3.866.874 1.681 1.764 3.804 2.835 6.477 1.069 2.668 2.478 4.549 4.148 5.82 1.69 1.285 3.625 1.93 5.729 2.117 1.88.167 3.848-.061 5.857-.531 1.966-.46 3.983-1.152 6.004-1.924 3.153-1.204 5.096-1.278 6.516-.66 1.415.613 2.468 2.003 3.716 3.65.865 1.142 1.804 2.376 2.975 3.653a26.394 26.394 0 004.322 3.8c4.234 2.965 7.83 3.196 11.06 2.098 3.125-1.063 5.795-3.357 8.374-5.572l.002-.002.016-.016c2.953-2.538 5.735-4.923 8.197-3.646.7.362 1.413.746 2.129 1.144.64.355 1.38.774 2.103 1.184 4.552 2.583 8.497 4.822 12.592 4.795 4.143-.03 8.231-2.368 12.855-8.971 2.427-3.469 3.979-5.05 5.524-5.496 1.494-.43 3.253.185 5.992 1.146.73.258 1.537.542 1.8.633.634.22 1.264.43 1.852.62 6.02 1.935 10.106 1.87 12.961.558 2.941-1.352 4.516-3.947 5.506-7.027.305-.95.544-1.956.748-2.983.2-.999.365-2.015.53-3.021.355-2.203.705-4.36 1.455-5.858.65-1.298 1.665-2.122 3.41-2.04 3.787.174 7.109.123 10-.325 2.959-.457 5.463-1.331 7.545-2.793 2.159-1.514 3.785-3.582 4.896-6.375 1.081-2.721 1.67-6.122 1.778-10.375.056-2.169.882-3.55 2.117-4.543 1.317-1.059 3.17-1.756 5.086-2.473 2.122-.795 4.298-1.612 6.295-2.912 2.036-1.329 3.82-3.127 5.037-5.841 1.43-3.19 1.42-6.083.709-8.8-.692-2.64-2.04-5.054-3.358-7.417-1.035-1.855-2.045-3.67-2.496-5.371-.416-1.574-.359-3.11.625-4.594a27.183 27.183 0 002.362-4.363 22.84 22.84 0 00.65-1.737l.002-.004c.707-2.157 1.03-4.315.892-6.382a12.924 12.924 0 00-.378-2.403l-.004-.013a12.05 12.05 0 00-3.252-5.618 13.449 13.449 0 00-1.028-.916 15.61 15.61 0 00-1.146-.838l-.01-.005-.01-.008a17.916 17.916 0 00-3.168-1.647c-.197-.08-.429-.17-.697-.267l-.726-.252h-.004l-1.838-.588c-.293-.091-.907-.276-1.52-.461v-.002c-2.475-.751-3.724-1.13-4.431-2.121-.782-1.098-1.202-3.133-2.024-7.197-.615-3.047-1.526-5.754-2.73-8.038a20.607 20.607 0 00-.746-1.298c-.256-.41-.528-.809-.817-1.198l.004-.003-.004-.004-.008-.004c-1.185-1.602-2.564-2.9-4.138-3.854a12.694 12.694 0 00-1.944-.959l-.008-.004h-.001c-1.72-.672-3.607-.971-5.653-.861a17.498 17.498 0 00-2.443.314l-.016.002c-2.586.522-5.401 1.662-8.443 3.498-.601.362-1.198.746-1.79 1.141-.558.379-1.17.812-1.833 1.303l-.008.004-.014.007.002.002c-1.283.948-2.391 1.354-3.277 1.315a2.193 2.193 0 01-.805-.192l.002-.001-.008-.004-.002.004c-3.284-1.583-4.067-4.635-4.843-7.66-.827-3.22-1.647-6.419-5.08-8.362-1.638-.926-3.269-1.343-4.862-1.39zm-.103 1.891h.002c1.33.034 2.684.376 4.037 1.14 2.73 1.544 3.45 4.355 4.178 7.186.884 3.45 1.776 6.926 5.855 8.889v.004l.01.004h.004c.237.114.484.203.742.265.254.06.519.102.795.114 1.298.059 2.818-.467 4.478-1.694l.006-.004.014-.01a47.545 47.545 0 013.472-2.335c2.858-1.724 5.473-2.79 7.84-3.268l.016-.002a14.668 14.668 0 012.17-.283c1.776-.096 3.404.164 4.88.742l.009.006h.003c.29.114.568.236.836.367.264.133.535.281.807.445 1.36.825 2.562 1.955 3.598 3.35l-.002.002.004.008.007.004c.25.337.495.696.735 1.08.224.36.45.754.676 1.183 1.125 2.131 1.975 4.67 2.554 7.53.875 4.328 1.325 6.5 2.332 7.914 1.082 1.518 2.537 1.96 5.42 2.834h.004c.314.093.699.212 1.506.463.611.188 1.227.383 1.81.572l.004.002c.223.073.443.15.668.23.187.07.401.152.64.248 1.06.43 2 .922 2.821 1.463v.002l.006.004.012.006a12.102 12.102 0 011.896 1.531 10.21 10.21 0 012.752 4.754l.004.012c.085.335.157.673.211 1.008.056.359.095.707.117 1.04.121 1.823-.168 3.744-.802 5.678l-.002.004c-.088.267-.18.531-.28.793-.092.243-.198.51-.318.795a25.232 25.232 0 01-2.197 4.063c-1.331 2.009-1.42 4.04-.873 6.11.514 1.94 1.578 3.85 2.668 5.806 1.259 2.253 2.545 4.561 3.177 6.974.614 2.335.622 4.82-.605 7.555-1.048 2.342-2.586 3.893-4.344 5.04-1.8 1.172-3.891 1.957-5.927 2.72-2.053.767-4.04 1.513-5.606 2.771-1.647 1.325-2.743 3.141-2.818 5.967-.102 4.027-.647 7.217-1.643 9.723-.969 2.433-2.371 4.225-4.226 5.529-1.83 1.283-4.073 2.057-6.75 2.47-2.745.425-5.95.473-9.631.302-2.651-.122-4.19 1.126-5.176 3.087-.884 1.763-1.256 4.055-1.635 6.395-.16.986-.321 1.983-.515 2.957a24.52 24.52 0 01-.698 2.771c-.843 2.622-2.14 4.816-4.498 5.897-2.44 1.12-6.077 1.131-11.597-.645-.607-.195-1.218-.4-1.815-.603-.96-.333-1.373-.477-1.793-.625-3.088-1.085-5.067-1.783-7.135-1.186-2.015.582-3.847 2.372-6.543 6.225-4.213 6.017-7.795 8.145-11.33 8.17-3.582.025-7.324-2.099-11.646-4.55-.657-.373-1.333-.756-2.117-1.192a82.814 82.814 0 00-2.186-1.17c-3.577-1.856-6.82.92-10.26 3.877h-.002l-.004.004-.015.013c-2.446 2.101-4.979 4.278-7.77 5.229-2.693.917-5.73.698-9.377-1.856a24.378 24.378 0 01-4.013-3.533c-1.096-1.192-2.014-2.4-2.86-3.515-1.408-1.86-2.598-3.427-4.47-4.24-1.865-.81-4.255-.778-7.936.63-1.943.74-3.88 1.406-5.762 1.846-1.837.429-3.61.64-5.267.492-1.756-.156-3.361-.686-4.748-1.74-1.406-1.072-2.61-2.693-3.541-5.022-1.084-2.702-1.988-4.862-2.914-6.642-.944-1.824-1.9-3.227-3.06-4.352-1.16-1.125-2.564-2.019-4.411-2.83-1.788-.789-3.992-1.497-6.8-2.277l-.003-.004h-.006v.002c-.355-.1-.71-.207-1.06-.317l-1.002-.341h-.006l-2.309-.983-1.974-1.137h-.004l-.01-.003a13.905 13.905 0 01-2.06-1.664c-1.533-1.503-2.518-3.224-3.047-5.096l.002-.002-.004-.014a12.534 12.534 0 01-.402-2.2c-.182-1.947.063-4.004.648-6.103l.004-.003v-.004h-.002l.398-1.291c.148-.435.312-.876.487-1.31.848-2.128 2.002-4.274 3.369-6.366l.242-.367c1.539-2.302 1.69-4.546 1.133-6.776-.51-2.044-1.607-4.016-2.742-6.023v-.01l-.116-.203c-1.433-2.531-2.893-5.11-3.463-7.832-.55-2.642-.267-5.49 1.713-8.705 1.267-2.057 2.912-3.452 4.721-4.502 1.853-1.075 3.915-1.812 5.92-2.528 2.329-.83 4.57-1.63 6.297-3.072 1.799-1.505 2.95-3.62 2.902-6.994-.18-11.574 2.605-16.75 7.176-18.531 4.682-1.824 11.398-.266 18.77 1.69 4.394 1.166 6.303-2.907 8.447-7.49.822-1.759 1.681-3.6 2.775-5.255h-.002c2.835-4.195 7.156-6.483 16.414-.3 2.8 1.866 4.998-1.343 7.799-5.434 3.65-5.328 8.5-12.41 16.277-9.72h.006a52.072 52.072 0 013.133 1.202 43.841 43.841 0 017.635 4.13l.3.212c6.44 4.484 10.617 1.116 14.868-2.314l.002-.002c1.987-1.603 4.413-3.397 7.027-4.36 1.253-.462 2.56-.735 3.889-.701zm-40.28 5.69a7.897 7.897 0 00-3.484.812c-2.999 1.462-5.025 4.433-6.89 7.08-1.773 2.57-3.591 5.624-6.276 7.342-6.471 4.136-5.59-4.645-14.984-2.938-5.14.934-6.832 6.626-8.373 10.871-4.474 12.327-15.756-2.13-25.936 3.19-5.574 2.912-4.891 10.386-5.072 15.685-.066 1.95-.17 3.99-.899 5.823-1.714 4.305-6.769 5.364-10.67 6.81-2.999 1.11-6.287 2.48-8.26 5.131-3.878 5.223.196 11.625 2.92 16.317.95 1.639 1.985 3.343 2.422 5.207.89 3.808-1.64 7.034-3.501 10.097-1.966 3.234-4.083 7.022-3.582 10.951 1.05 8.267 12.795 8.982 19.167 11.303 4.245 1.545 6.151 4.648 7.39 9.024.935 3.305 1.652 7.227 4.273 9.66 4.766 4.426 11.643.416 16.726-1.166 1.263-.392 2.573-.723 3.904-.715 4.318.029 6.957 4.052 9.446 7.021 1.87 2.234 3.986 4.717 6.808 5.743 5.456 1.982 10.112-3.14 13.92-6.225 1.417-1.146 2.94-2.31 4.694-2.883 4.166-1.358 7.936 1.665 11.218 3.807 2.427 1.587 5.145 3.376 8.121 3.588 5.206.37 8.248-4.707 10.832-8.41 1.326-1.905 2.731-3.997 4.717-5.274 3.7-2.373 8.105-.395 11.826.863 2.75.93 5.827 1.983 8.764 1.44 5.135-.948 6.814-6.636 8.356-10.883.79-2.175 1.6-4.56 3.175-6.309 2.93-3.246 7.688-2.505 11.596-2.324 2.912.133 6.172.264 8.838-1.117 5.175-2.681 4.554-9.598 4.728-14.506.063-1.8.164-3.69.842-5.385 1.59-3.978 6.265-4.956 9.873-6.289 2.78-1.027 5.825-2.294 7.647-4.748 3.59-4.836-.19-10.761-2.717-15.1-.883-1.513-1.566-3.18-2.246-4.818-1.655-3.985.91-6.984 2.566-9.877 1.526-2.672 2.966-5.927 1.98-9.043-1.46-4.61-7-5.692-11.089-6.636-1.53-.352-3.15-.695-4.522-1.496-2.829-1.651-3.241-5.076-4.6-11.786-.682-3.367-1.672-7.219-4.292-9.65-4.763-4.417-15.077 4.144-20.152 5.729-1.26.393-2.572.725-3.9.718-4.316-.02-8.814-3.197-9.456-7.011-1.685-9.994-11.467-10.168-18.451-4.536-1.576 1.272-3.276 2.564-5.229 3.194-4.639 1.497-8.822-1.878-12.468-4.27-2.884-1.89-6.238-4.021-9.7-4.011zm42.584 25.513c4.826-.103 8.852 1.183 12.07 3.863 3.689 3.07 5.817 7.537 6.4 13.413.58 5.869-.633 10.661-3.647 14.396-3.007 3.733-7.403 5.889-13.178 6.461-5.793.572-10.544-.678-14.23-3.75-3.689-3.07-5.829-7.533-6.409-13.402-.58-5.876.642-10.672 3.657-14.405 3.016-3.725 7.428-5.875 13.22-6.447a27.44 27.44 0 012.117-.129zm-41.736 2.703c5.303-.112 9.728 1.304 13.266 4.248 4.053 3.375 6.395 8.283 7.033 14.74.637 6.448-.697 11.72-4.01 15.825-3.305 4.1-8.135 6.47-14.48 7.097-6.368.63-11.587-.745-15.64-4.12-4.054-3.374-6.405-8.28-7.044-14.73-.638-6.457.707-11.728 4.02-15.831 3.315-4.093 8.164-6.456 14.529-7.086a30.136 30.136 0 012.326-.143zm-24.826 4.149a.42.42 0 01.459.377l.943 9.533a.4.4 0 01-.084.295l-17.095 22.49a.416.416 0 00.377.672l19.582-1.938a.42.42 0 01.459.377l.998 10.086a.422.422 0 01-.377.461l-36.643 3.625a.423.423 0 01-.46-.379l-.952-9.62a.404.404 0 01.084-.296l16.877-22.32a.416.416 0 00-.377-.672l-17.654 1.748a.423.423 0 01-.461-.379l-1.004-10.142a.422.422 0 01.377-.461l34.95-3.457zm65.41 2.017c-.284.003-.577.02-.879.05-2.434.24-4.143 1.22-5.129 2.929-.988 1.718-1.307 4.284-.968 7.709.339 3.419 1.154 5.862 2.458 7.353 1.304 1.483 3.173 2.109 5.606 1.868 2.415-.24 4.107-1.21 5.078-2.916.971-1.7 1.282-4.265.941-7.698-.34-3.444-1.146-5.907-2.433-7.38-1.125-1.3-2.685-1.935-4.674-1.915zm-41.082 3.801c-.312.004-.633.022-.965.055-2.675.264-4.553 1.338-5.637 3.219-1.085 1.888-1.437 4.706-1.064 8.47.372 3.76 1.268 6.444 2.701 8.082 1.433 1.631 3.486 2.317 6.158 2.053 2.654-.262 4.515-1.327 5.582-3.205 1.066-1.867 1.41-4.682 1.038-8.46-.374-3.784-1.264-6.488-2.676-8.11-1.238-1.428-2.951-2.128-5.137-2.104zm77.97 10.53c.165-.007.33-.005.493.003 3.83.204 7.477 4.48 4.719 12.364-4.003 11.445-14.853 18.052-25.534 18.877a.667.667 0 00-.61.748c.513 4.328-.272 8.02-2.339 11.093-2.34 3.463-5.985 5.652-10.95 6.567-4.962.917-9.17.186-12.593-2.203-3.419-2.386-5.597-6.094-6.521-11.13-.93-5.045-.232-9.293 2.101-12.741 2.346-3.452 6.002-5.638 10.98-6.553 4.966-.915 9.156-.184 12.56 2.201 2.048 1.435 3.654 3.35 4.81 5.748a.668.668 0 00.79.354c7.267-2.1 14.51-10.493 16.466-19.875.747-3.583 3.17-5.36 5.629-5.454zM111.958 81.64c2.095-.017 3.976.397 5.645 1.236 2.67 1.342 4.347 3.533 5.035 6.58.454 2.007.393 3.78-.174 5.307-.568 1.535-2.01 3.414-4.334 5.65-.274.274-.716.703-1.334 1.287-1.824 1.71-3.267 3.205-4.34 4.49a.367.367 0 00.365.598l12.62-2.853a.372.372 0 01.44.279l1.567 6.945a.368.368 0 01-.275.442l-25.352 5.73a.37.37 0 01-.431-.25c-.004-.014-.012-.032-.016-.05a4.478 4.478 0 01-.11-.38c-.501-2.215-.291-4.473.62-6.765.922-2.288 2.661-4.846 5.228-7.668.665-.76 1.612-1.756 2.828-2.977 2.906-2.947 4.18-5.227 3.817-6.838-.28-1.236-.832-2.126-1.668-2.68-.836-.552-1.847-.691-3.022-.427-1.464.333-2.456 1.048-2.966 2.148-.516 1.102-.56 2.603-.131 4.506l.04.184a.37.37 0 01-.279.441l-7.587 1.715a.369.369 0 01-.436-.256l-.039-.129a7.224 7.224 0 01-.12-.42c-.872-3.865-.381-7.157 1.466-9.879 1.853-2.725 4.83-4.545 8.941-5.472 1.411-.32 2.745-.484 4.002-.494zm29.639 2.345a7.937 7.937 0 00-1.477.141c-2.088.387-3.495 1.358-4.223 2.912-.728 1.56-.817 3.803-.273 6.746.543 2.934 1.428 4.99 2.666 6.186 1.237 1.189 2.9 1.592 4.99 1.205 2.074-.383 3.468-1.348 4.184-2.897.717-1.543.797-3.785.252-6.734-.55-2.956-1.429-5.027-2.65-6.213-.916-.892-2.073-1.339-3.47-1.346zm-56.598 3.1c1.832 0 3.491.328 4.98.984 2.652 1.173 4.326 3.171 5.016 6.004.356 1.455.362 2.779.03 3.983-.275.988-.784 1.886-1.524 2.691a.376.376 0 00.2.633c1.296.28 2.376.852 3.228 1.713 1.01 1.012 1.741 2.451 2.195 4.306.854 3.506.305 6.543-1.66 9.12-1.957 2.572-5.113 4.392-9.479 5.455-4.012.979-7.458.706-10.336-.827-2.866-1.529-4.74-4.078-5.613-7.66l-.068-.281a.382.382 0 01.28-.46l8.081-1.974a.382.382 0 01.455.254c.454 1.404 1.116 2.382 1.98 2.94.943.592 2.167.71 3.663.344 1.303-.318 2.228-.887 2.77-1.7.54-.816.658-1.835.359-3.064-.304-1.242-.938-2.044-1.897-2.404-.965-.36-2.37-.319-4.224.134l-.42.104a.383.383 0 01-.461-.281l-1.174-4.81a.385.385 0 01.281-.464l.281-.068c1.726-.42 2.946-1.01 3.678-1.774.723-.769.952-1.702.684-2.806-.24-.976-.73-1.644-1.465-2.002-.741-.364-1.69-.4-2.863-.114-1.321.323-2.254.867-2.8 1.626-.487.683-.67 1.552-.542 2.607a.378.378 0 01-.291.416l-7.95 1.94a.381.381 0 01-.466-.3c-.61-3.138-.008-5.936 1.804-8.398 1.893-2.567 4.782-4.32 8.68-5.27 1.634-.398 3.163-.597 4.588-.597zm-20.322 3.768a.404.404 0 01.326.302l8.033 33.004a.401.401 0 01-.293.485l-9.1 2.214a.402.402 0 01-.484-.295l-4.596-18.886a.405.405 0 00-.486-.295l-6.818 1.66a.4.4 0 01-.483-.295l-1.52-6.242a.398.398 0 01.28-.48c2.934-.823 5-1.924 6.18-3.313 1.185-1.388 1.705-3.302 1.57-5.754a.4.4 0 01.303-.412l6.93-1.688a.392.392 0 01.158-.005zM159.54 108.2l.629 2.422-2.59.674 1.758 6.77-2.953.763-1.758-6.767-2.647.687-.626-2.424 8.187-2.125zm-9.227 2.397l2.385 9.19-2.812.73-3.676-3.573a3.609 3.609 0 01-.399-.465c-.154-.204-.317-.44-.49-.71.073.154.138.319.196.494.06.172.13.418.212.74l1.118 4.303-2.801.726-2.387-9.19 2.803-.728 3.687 3.608c.108.1.24.247.385.445.147.196.31.438.49.725a7.295 7.295 0 01-.195-.522 14.413 14.413 0 01-.201-.707l-1.125-4.338 2.81-.728zm-12.726 3.302l5.615 8.352-2.926.76-.658-1.127-2.928.76-.039 1.308-2.9.754.846-10.031 2.99-.776zm-8.717 2.461c.079-.001.154-.002.229 0 .356.01.666.066.927.162.694.258 1.166.86 1.409 1.8.145.56.145 1.056 0 1.49-.144.431-.442.823-.89 1.17.54-.024.97.091 1.284.349.316.258.562.692.738 1.303l.381 1.27c.002.007.008.016.014.027.109.364.246.53.412.505l.088.344-2.975.772a9.735 9.735 0 01-.271-.545 2.95 2.95 0 01-.14-.371l-.237-.92c-.125-.472-.304-.782-.543-.928-.237-.146-.588-.158-1.049-.037l-1.254.326.824 3.168-2.916.758-2.382-9.192 4.396-1.142c.754-.195 1.406-.298 1.955-.309zm7.969.791l-.111 3.426 1.851-.48-1.74-2.946zm-16.043 1.108l1.531 5.894c.3 1.153.154 2.129-.43 2.93-.586.798-1.582 1.382-2.992 1.748-1.42.368-2.581.346-3.49-.07-.904-.414-1.509-1.196-1.807-2.344l-1.53-5.897 2.952-.763 1.47 5.664c.136.524.341.866.618 1.031.276.168.67.186 1.182.053.499-.131.83-.333.984-.608.16-.272.168-.679.031-1.207l-1.47-5.666 2.95-.765zm7.273.568c-.204 0-.468.042-.793.125l-1.265.332.443 1.72 1.344-.349c.47-.122.778-.268.924-.441.145-.174.176-.419.095-.735-.084-.322-.232-.526-.445-.607a.87.87 0 00-.303-.045zm-19.818 2.688l5.617 8.353-2.928.76-.658-1.129-2.926.76-.04 1.308-2.903.752.85-10.027 2.988-.777zm-5.87 1.523l.63 2.422-2.592.672 1.758 6.77-2.953.765-1.756-6.77-2.647.69-.627-2.424 8.188-2.125zm5.124 1.729l-.113 3.423 1.853-.478-1.74-2.945zm-16.545 1.181a3.71 3.71 0 011.35.244c.807.322 1.374.935 1.703 1.84l-2.801.729a.902.902 0 00-.516-.512c-.228-.085-.524-.078-.88.016-.315.08-.536.192-.665.338-.127.144-.161.32-.105.535.077.3.547.453 1.406.445.08.004.136.004.176.004.122-.004.311-.005.562-.01 1.14-.006 1.9.058 2.286.195.48.164.854.393 1.132.692.277.296.478.677.6 1.15.262 1.012.113 1.885-.455 2.615-.568.728-1.513 1.265-2.836 1.608-1.221.319-2.254.295-3.111-.065-.855-.36-1.454-1.023-1.8-1.99l2.872-.746c.164.31.37.515.615.606.247.094.575.086.986-.02.346-.092.601-.222.768-.393.168-.168.222-.356.168-.566-.085-.33-.57-.494-1.45-.488l-.405.004a18.752 18.752 0 01-1.743-.057c-.439-.039-.764-.099-.98-.176a2.565 2.565 0 01-1.033-.705 2.765 2.765 0 01-.58-1.14c-.237-.91-.079-1.716.472-2.413.553-.699 1.43-1.203 2.631-1.515a6.366 6.366 0 011.633-.225zm-6.727 1.8l.573 2.202-4.393 1.14.318 1.225 3.713-.962.547 2.109-3.713.963.367 1.42 4.575-1.186.58 2.235-7.526 1.953-2.384-9.192 7.343-1.908zm-10.744 2.987a4.58 4.58 0 01.229 0c.357.01.666.066.927.162.694.258 1.165.86 1.409 1.8.145.561.145 1.058 0 1.49-.144.433-.44.824-.887 1.17.538-.024.965.091 1.281.351.316.257.561.69.739 1.3l.38 1.27a.07.07 0 00.014.028c.109.364.246.532.41.507l.09.342-2.975.772a8.94 8.94 0 01-.27-.545 2.392 2.392 0 01-.14-.371l-.236-.92c-.123-.472-.304-.782-.543-.928-.237-.145-.588-.158-1.049-.037l-1.256.326.825 3.17-2.915.756-2.386-9.191 4.398-1.141c.754-.196 1.406-.3 1.955-.31zm-.799 2.467c-.204 0-.47.042-.795.125l-1.267.332.447 1.72 1.342-.347c.472-.123.778-.271.926-.443.145-.175.175-.418.094-.735-.085-.324-.234-.526-.446-.607a.857.857 0 00-.3-.045z" fill="#fff"/></svg>